solid OpenSCAD_Model
  facet normal 0.792406 0.609994 0
    outer loop
      vertex 73.0836 24.4042 40
      vertex 64.7214 35.2671 -40
      vertex 64.7214 35.2671 40
    endloop
  endfacet
  facet normal 0.792406 0.609994 0
    outer loop
      vertex 64.7214 35.2671 -40
      vertex 73.0836 24.4042 40
      vertex 73.0836 24.4042 -40
    endloop
  endfacet
  facet normal -0.917591 0.397525 0
    outer loop
      vertex -78.2518 12.4747 -40
      vertex -73.0836 24.4042 40
      vertex -73.0836 24.4042 -40
    endloop
  endfacet
  facet normal -0.917591 0.397525 0
    outer loop
      vertex -73.0836 24.4042 40
      vertex -78.2518 12.4747 -40
      vertex -78.2518 12.4747 40
    endloop
  endfacet
  facet normal 0.640015 0.768363 -0
    outer loop
      vertex 64.7214 35.2671 -40
      vertex 53.5304 44.5887 40
      vertex 64.7214 35.2671 40
    endloop
  endfacet
  facet normal 0.640015 0.768363 0
    outer loop
      vertex 53.5304 44.5887 40
      vertex 64.7214 35.2671 -40
      vertex 53.5304 44.5887 -40
    endloop
  endfacet
  facet normal -0.31673 0.948516 0
    outer loop
      vertex -24.7214 57.0634 -40
      vertex -40 51.9615 40
      vertex -24.7214 57.0634 40
    endloop
  endfacet
  facet normal -0.31673 0.948516 0
    outer loop
      vertex -40 51.9615 40
      vertex -24.7214 57.0634 -40
      vertex -40 51.9615 -40
    endloop
  endfacet
  facet normal -0.792406 0.609994 0
    outer loop
      vertex -73.0836 24.4042 -40
      vertex -64.7214 35.2671 40
      vertex -64.7214 35.2671 -40
    endloop
  endfacet
  facet normal -0.792406 0.609994 0
    outer loop
      vertex -64.7214 35.2671 40
      vertex -73.0836 24.4042 -40
      vertex -73.0836 24.4042 40
    endloop
  endfacet
  facet normal 0.990323 -0.138783 0
    outer loop
      vertex 78.2518 -12.4747 40
      vertex 80 0 -40
      vertex 80 0 40
    endloop
  endfacet
  facet normal 0.990323 -0.138783 0
    outer loop
      vertex 80 0 -40
      vertex 78.2518 -12.4747 40
      vertex 78.2518 -12.4747 -40
    endloop
  endfacet
  facet normal 0.917591 0.397525 0
    outer loop
      vertex 78.2518 12.4747 40
      vertex 73.0836 24.4042 -40
      vertex 73.0836 24.4042 40
    endloop
  endfacet
  facet normal 0.917591 0.397525 0
    outer loop
      vertex 73.0836 24.4042 -40
      vertex 78.2518 12.4747 40
      vertex 78.2518 12.4747 -40
    endloop
  endfacet
  facet normal 0.478482 0.878098 -0
    outer loop
      vertex 53.5304 44.5887 -40
      vertex 40 51.9615 40
      vertex 53.5304 44.5887 40
    endloop
  endfacet
  facet normal 0.478482 0.878098 0
    outer loop
      vertex 40 51.9615 40
      vertex 53.5304 44.5887 -40
      vertex 40 51.9615 -40
    endloop
  endfacet
  facet normal 0 1 -0
    outer loop
      vertex 8.36228 59.6713 -40
      vertex -8.36228 59.6713 40
      vertex 8.36228 59.6713 40
    endloop
  endfacet
  facet normal 0 1 0
    outer loop
      vertex -8.36228 59.6713 40
      vertex 8.36228 59.6713 -40
      vertex -8.36228 59.6713 -40
    endloop
  endfacet
  facet normal 0.31673 0.948516 -0
    outer loop
      vertex 40 51.9615 -40
      vertex 24.7214 57.0634 40
      vertex 40 51.9615 40
    endloop
  endfacet
  facet normal 0.31673 0.948516 0
    outer loop
      vertex 24.7214 57.0634 40
      vertex 40 51.9615 -40
      vertex 24.7214 57.0634 -40
    endloop
  endfacet
  facet normal -0.990323 0.138783 0
    outer loop
      vertex -80 0 -40
      vertex -78.2518 12.4747 40
      vertex -78.2518 12.4747 -40
    endloop
  endfacet
  facet normal -0.990323 0.138783 0
    outer loop
      vertex -78.2518 12.4747 40
      vertex -80 0 -40
      vertex -80 0 40
    endloop
  endfacet
  facet normal -0.478482 0.878098 0
    outer loop
      vertex -40 51.9615 -40
      vertex -53.5304 44.5887 40
      vertex -40 51.9615 40
    endloop
  endfacet
  facet normal -0.478482 0.878098 0
    outer loop
      vertex -53.5304 44.5887 40
      vertex -40 51.9615 -40
      vertex -53.5304 44.5887 -40
    endloop
  endfacet
  facet normal -0.157429 0.98753 0
    outer loop
      vertex -8.36228 59.6713 -40
      vertex -24.7214 57.0634 40
      vertex -8.36228 59.6713 40
    endloop
  endfacet
  facet normal -0.157429 0.98753 0
    outer loop
      vertex -24.7214 57.0634 40
      vertex -8.36228 59.6713 -40
      vertex -24.7214 57.0634 -40
    endloop
  endfacet
  facet normal -0.640015 0.768363 0
    outer loop
      vertex -53.5304 44.5887 -40
      vertex -64.7214 35.2671 40
      vertex -53.5304 44.5887 40
    endloop
  endfacet
  facet normal -0.640015 0.768363 0
    outer loop
      vertex -64.7214 35.2671 40
      vertex -53.5304 44.5887 -40
      vertex -64.7214 35.2671 -40
    endloop
  endfacet
  facet normal 0.990323 0.138783 0
    outer loop
      vertex 80 0 40
      vertex 78.2518 12.4747 -40
      vertex 78.2518 12.4747 40
    endloop
  endfacet
  facet normal 0.990323 0.138783 0
    outer loop
      vertex 78.2518 12.4747 -40
      vertex 80 0 40
      vertex 80 0 -40
    endloop
  endfacet
  facet normal 0.917591 -0.397525 0
    outer loop
      vertex 73.0836 -24.4042 40
      vertex 78.2518 -12.4747 -40
      vertex 78.2518 -12.4747 40
    endloop
  endfacet
  facet normal 0.917591 -0.397525 0
    outer loop
      vertex 78.2518 -12.4747 -40
      vertex 73.0836 -24.4042 40
      vertex 73.0836 -24.4042 -40
    endloop
  endfacet
  facet normal -0.792406 -0.609994 0
    outer loop
      vertex -64.7214 -35.2671 -40
      vertex -73.0836 -24.4042 40
      vertex -73.0836 -24.4042 -40
    endloop
  endfacet
  facet normal -0.792406 -0.609994 0
    outer loop
      vertex -73.0836 -24.4042 40
      vertex -64.7214 -35.2671 -40
      vertex -64.7214 -35.2671 40
    endloop
  endfacet
  facet normal 0.478482 -0.878098 0
    outer loop
      vertex 40 -51.9615 -40
      vertex 53.5304 -44.5887 40
      vertex 40 -51.9615 40
    endloop
  endfacet
  facet normal 0.478482 -0.878098 0
    outer loop
      vertex 53.5304 -44.5887 40
      vertex 40 -51.9615 -40
      vertex 53.5304 -44.5887 -40
    endloop
  endfacet
  facet normal 0.157429 0.98753 -0
    outer loop
      vertex 24.7214 57.0634 -40
      vertex 8.36228 59.6713 40
      vertex 24.7214 57.0634 40
    endloop
  endfacet
  facet normal 0.157429 0.98753 0
    outer loop
      vertex 8.36228 59.6713 40
      vertex 24.7214 57.0634 -40
      vertex 8.36228 59.6713 -40
    endloop
  endfacet
  facet normal 0 0 1
    outer loop
      vertex 75 0 40
      vertex 80 0 40
      vertex 78.2518 12.4747 40
    endloop
  endfacet
  facet normal 0 0 1
    outer loop
      vertex 80 0 40
      vertex 75 0 40
      vertex 78.2518 -12.4747 40
    endloop
  endfacet
  facet normal 0 0 1
    outer loop
      vertex 78.2518 12.4747 40
      vertex 73.3611 11.695 40
      vertex 75 0 40
    endloop
  endfacet
  facet normal 0 0 1
    outer loop
      vertex 73.0836 24.4042 40
      vertex 73.3611 11.695 40
      vertex 78.2518 12.4747 40
    endloop
  endfacet
  facet normal 0 0 1
    outer loop
      vertex 73.0836 24.4042 40
      vertex 68.5159 22.8789 40
      vertex 73.3611 11.695 40
    endloop
  endfacet
  facet normal 0 0 1
    outer loop
      vertex 64.7214 35.2671 40
      vertex 68.5159 22.8789 40
      vertex 73.0836 24.4042 40
    endloop
  endfacet
  facet normal 0 0 1
    outer loop
      vertex 64.7214 35.2671 40
      vertex 60.6763 33.0629 40
      vertex 68.5159 22.8789 40
    endloop
  endfacet
  facet normal 0 0 1
    outer loop
      vertex 53.5304 44.5887 40
      vertex 60.6763 33.0629 40
      vertex 64.7214 35.2671 40
    endloop
  endfacet
  facet normal 0 0 1
    outer loop
      vertex 53.5304 44.5887 40
      vertex 50.1848 41.8019 40
      vertex 60.6763 33.0629 40
    endloop
  endfacet
  facet normal 0 0 1
    outer loop
      vertex 40 51.9615 40
      vertex 50.1848 41.8019 40
      vertex 53.5304 44.5887 40
    endloop
  endfacet
  facet normal 0 0 1
    outer loop
      vertex 40 51.9615 40
      vertex 37.5 48.7139 40
      vertex 50.1848 41.8019 40
    endloop
  endfacet
  facet normal 0 0 1
    outer loop
      vertex 24.7214 57.0634 40
      vertex 37.5 48.7139 40
      vertex 40 51.9615 40
    endloop
  endfacet
  facet normal 0 0 1
    outer loop
      vertex 24.7214 57.0634 40
      vertex 23.1763 53.4969 40
      vertex 37.5 48.7139 40
    endloop
  endfacet
  facet normal 0 0 1
    outer loop
      vertex 8.36228 59.6713 40
      vertex 23.1763 53.4969 40
      vertex 24.7214 57.0634 40
    endloop
  endfacet
  facet normal 0 0 1
    outer loop
      vertex 8.36228 59.6713 40
      vertex 7.83963 55.9419 40
      vertex 23.1763 53.4969 40
    endloop
  endfacet
  facet normal 0 0 1
    outer loop
      vertex 8.36228 59.6713 40
      vertex -7.83963 55.9419 40
      vertex 7.83963 55.9419 40
    endloop
  endfacet
  facet normal -0 0 1
    outer loop
      vertex -8.36228 59.6713 40
      vertex -7.83963 55.9419 40
      vertex 8.36228 59.6713 40
    endloop
  endfacet
  facet normal 0 0 1
    outer loop
      vertex -8.36228 59.6713 40
      vertex -23.1763 53.4969 40
      vertex -7.83963 55.9419 40
    endloop
  endfacet
  facet normal -0 0 1
    outer loop
      vertex -24.7214 57.0634 40
      vertex -23.1763 53.4969 40
      vertex -8.36228 59.6713 40
    endloop
  endfacet
  facet normal 0 0 1
    outer loop
      vertex -24.7214 57.0634 40
      vertex -37.5 48.7139 40
      vertex -23.1763 53.4969 40
    endloop
  endfacet
  facet normal -0 0 1
    outer loop
      vertex -40 51.9615 40
      vertex -37.5 48.7139 40
      vertex -24.7214 57.0634 40
    endloop
  endfacet
  facet normal 0 0 1
    outer loop
      vertex -40 51.9615 40
      vertex -50.1848 41.8019 40
      vertex -37.5 48.7139 40
    endloop
  endfacet
  facet normal -0 0 1
    outer loop
      vertex -53.5304 44.5887 40
      vertex -50.1848 41.8019 40
      vertex -40 51.9615 40
    endloop
  endfacet
  facet normal 0 0 1
    outer loop
      vertex -53.5304 44.5887 40
      vertex -60.6763 33.0629 40
      vertex -50.1848 41.8019 40
    endloop
  endfacet
  facet normal -0 0 1
    outer loop
      vertex -64.7214 35.2671 40
      vertex -60.6763 33.0629 40
      vertex -53.5304 44.5887 40
    endloop
  endfacet
  facet normal 0 0 1
    outer loop
      vertex -64.7214 35.2671 40
      vertex -68.5159 22.8789 40
      vertex -60.6763 33.0629 40
    endloop
  endfacet
  facet normal -0 0 1
    outer loop
      vertex -73.0836 24.4042 40
      vertex -68.5159 22.8789 40
      vertex -64.7214 35.2671 40
    endloop
  endfacet
  facet normal 0 0 1
    outer loop
      vertex -73.0836 24.4042 40
      vertex -73.3611 11.695 40
      vertex -68.5159 22.8789 40
    endloop
  endfacet
  facet normal -0 0 1
    outer loop
      vertex -78.2518 12.4747 40
      vertex -73.3611 11.695 40
      vertex -73.0836 24.4042 40
    endloop
  endfacet
  facet normal 0 0 1
    outer loop
      vertex -73.3611 11.695 40
      vertex -78.2518 12.4747 40
      vertex -75 0 40
    endloop
  endfacet
  facet normal -0 0 1
    outer loop
      vertex 73.3611 -11.695 40
      vertex 78.2518 -12.4747 40
      vertex 75 0 40
    endloop
  endfacet
  facet normal 0 0 1
    outer loop
      vertex 73.3611 -11.695 40
      vertex 73.0836 -24.4042 40
      vertex 78.2518 -12.4747 40
    endloop
  endfacet
  facet normal -0 0 1
    outer loop
      vertex 68.5159 -22.8789 40
      vertex 73.0836 -24.4042 40
      vertex 73.3611 -11.695 40
    endloop
  endfacet
  facet normal 0 0 1
    outer loop
      vertex 68.5159 -22.8789 40
      vertex 64.7214 -35.2671 40
      vertex 73.0836 -24.4042 40
    endloop
  endfacet
  facet normal -0 0 1
    outer loop
      vertex 60.6763 -33.0629 40
      vertex 64.7214 -35.2671 40
      vertex 68.5159 -22.8789 40
    endloop
  endfacet
  facet normal 0 0 1
    outer loop
      vertex 60.6763 -33.0629 40
      vertex 53.5304 -44.5887 40
      vertex 64.7214 -35.2671 40
    endloop
  endfacet
  facet normal -0 0 1
    outer loop
      vertex 50.1848 -41.8019 40
      vertex 53.5304 -44.5887 40
      vertex 60.6763 -33.0629 40
    endloop
  endfacet
  facet normal 0 0 1
    outer loop
      vertex 50.1848 -41.8019 40
      vertex 40 -51.9615 40
      vertex 53.5304 -44.5887 40
    endloop
  endfacet
  facet normal -0 0 1
    outer loop
      vertex 37.5 -48.7139 40
      vertex 40 -51.9615 40
      vertex 50.1848 -41.8019 40
    endloop
  endfacet
  facet normal 0 0 1
    outer loop
      vertex 37.5 -48.7139 40
      vertex 24.7214 -57.0634 40
      vertex 40 -51.9615 40
    endloop
  endfacet
  facet normal -0 0 1
    outer loop
      vertex 23.1763 -53.4969 40
      vertex 24.7214 -57.0634 40
      vertex 37.5 -48.7139 40
    endloop
  endfacet
  facet normal 0 0 1
    outer loop
      vertex 23.1763 -53.4969 40
      vertex 8.36228 -59.6713 40
      vertex 24.7214 -57.0634 40
    endloop
  endfacet
  facet normal -0 0 1
    outer loop
      vertex 7.83963 -55.9419 40
      vertex 8.36228 -59.6713 40
      vertex 23.1763 -53.4969 40
    endloop
  endfacet
  facet normal -0 0 1
    outer loop
      vertex -7.83963 -55.9419 40
      vertex 8.36228 -59.6713 40
      vertex 7.83963 -55.9419 40
    endloop
  endfacet
  facet normal 0 0 1
    outer loop
      vertex -7.83963 -55.9419 40
      vertex -8.36228 -59.6713 40
      vertex 8.36228 -59.6713 40
    endloop
  endfacet
  facet normal 0 0 1
    outer loop
      vertex -23.1763 -53.4969 40
      vertex -8.36228 -59.6713 40
      vertex -7.83963 -55.9419 40
    endloop
  endfacet
  facet normal 0 0 1
    outer loop
      vertex -23.1763 -53.4969 40
      vertex -24.7214 -57.0634 40
      vertex -8.36228 -59.6713 40
    endloop
  endfacet
  facet normal 0 0 1
    outer loop
      vertex -37.5 -48.7139 40
      vertex -24.7214 -57.0634 40
      vertex -23.1763 -53.4969 40
    endloop
  endfacet
  facet normal 0 0 1
    outer loop
      vertex -37.5 -48.7139 40
      vertex -40 -51.9615 40
      vertex -24.7214 -57.0634 40
    endloop
  endfacet
  facet normal 0 0 1
    outer loop
      vertex -50.1848 -41.8019 40
      vertex -40 -51.9615 40
      vertex -37.5 -48.7139 40
    endloop
  endfacet
  facet normal 0 0 1
    outer loop
      vertex -50.1848 -41.8019 40
      vertex -53.5304 -44.5887 40
      vertex -40 -51.9615 40
    endloop
  endfacet
  facet normal 0 0 1
    outer loop
      vertex -60.6763 -33.0629 40
      vertex -53.5304 -44.5887 40
      vertex -50.1848 -41.8019 40
    endloop
  endfacet
  facet normal 0 0 1
    outer loop
      vertex -60.6763 -33.0629 40
      vertex -64.7214 -35.2671 40
      vertex -53.5304 -44.5887 40
    endloop
  endfacet
  facet normal 0 0 1
    outer loop
      vertex -68.5159 -22.8789 40
      vertex -64.7214 -35.2671 40
      vertex -60.6763 -33.0629 40
    endloop
  endfacet
  facet normal 0 0 1
    outer loop
      vertex -68.5159 -22.8789 40
      vertex -73.0836 -24.4042 40
      vertex -64.7214 -35.2671 40
    endloop
  endfacet
  facet normal 0 0 1
    outer loop
      vertex -73.3611 -11.695 40
      vertex -73.0836 -24.4042 40
      vertex -68.5159 -22.8789 40
    endloop
  endfacet
  facet normal 0 0 1
    outer loop
      vertex -78.2518 -12.4747 40
      vertex -73.3611 -11.695 40
      vertex -75 0 40
    endloop
  endfacet
  facet normal 0 0 1
    outer loop
      vertex -80 0 40
      vertex -75 0 40
      vertex -78.2518 12.4747 40
    endloop
  endfacet
  facet normal 0 0 1
    outer loop
      vertex -73.3611 -11.695 40
      vertex -78.2518 -12.4747 40
      vertex -73.0836 -24.4042 40
    endloop
  endfacet
  facet normal 0 0 1
    outer loop
      vertex -75 0 40
      vertex -80 0 40
      vertex -78.2518 -12.4747 40
    endloop
  endfacet
  facet normal 0.792406 -0.609994 0
    outer loop
      vertex 64.7214 -35.2671 40
      vertex 73.0836 -24.4042 -40
      vertex 73.0836 -24.4042 40
    endloop
  endfacet
  facet normal 0.792406 -0.609994 0
    outer loop
      vertex 73.0836 -24.4042 -40
      vertex 64.7214 -35.2671 40
      vertex 64.7214 -35.2671 -40
    endloop
  endfacet
  facet normal -0.990323 -0.138783 0
    outer loop
      vertex -78.2518 -12.4747 -40
      vertex -80 0 40
      vertex -80 0 -40
    endloop
  endfacet
  facet normal -0.990323 -0.138783 0
    outer loop
      vertex -80 0 40
      vertex -78.2518 -12.4747 -40
      vertex -78.2518 -12.4747 40
    endloop
  endfacet
  facet normal 0.157429 -0.98753 0
    outer loop
      vertex 8.36228 -59.6713 -40
      vertex 24.7214 -57.0634 40
      vertex 8.36228 -59.6713 40
    endloop
  endfacet
  facet normal 0.157429 -0.98753 0
    outer loop
      vertex 24.7214 -57.0634 40
      vertex 8.36228 -59.6713 -40
      vertex 24.7214 -57.0634 -40
    endloop
  endfacet
  facet normal 0.31673 -0.948516 0
    outer loop
      vertex 24.7214 -57.0634 -40
      vertex 40 -51.9615 40
      vertex 24.7214 -57.0634 40
    endloop
  endfacet
  facet normal 0.31673 -0.948516 0
    outer loop
      vertex 40 -51.9615 40
      vertex 24.7214 -57.0634 -40
      vertex 40 -51.9615 -40
    endloop
  endfacet
  facet normal -0.157429 -0.98753 0
    outer loop
      vertex -24.7214 -57.0634 -40
      vertex -8.36228 -59.6713 40
      vertex -24.7214 -57.0634 40
    endloop
  endfacet
  facet normal -0.157429 -0.98753 -0
    outer loop
      vertex -8.36228 -59.6713 40
      vertex -24.7214 -57.0634 -40
      vertex -8.36228 -59.6713 -40
    endloop
  endfacet
  facet normal 0 -1 0
    outer loop
      vertex -8.36228 -59.6713 -40
      vertex 8.36228 -59.6713 40
      vertex -8.36228 -59.6713 40
    endloop
  endfacet
  facet normal 0 -1 -0
    outer loop
      vertex 8.36228 -59.6713 40
      vertex -8.36228 -59.6713 -40
      vertex 8.36228 -59.6713 -40
    endloop
  endfacet
  facet normal 0 0 -1
    outer loop
      vertex 75 0 -40
      vertex 80 0 -40
      vertex 78.2518 -12.4747 -40
    endloop
  endfacet
  facet normal 0 0 -1
    outer loop
      vertex 80 0 -40
      vertex 75 0 -40
      vertex 78.2518 12.4747 -40
    endloop
  endfacet
  facet normal 0 0 -1
    outer loop
      vertex 78.2518 -12.4747 -40
      vertex 73.3611 -11.695 -40
      vertex 75 0 -40
    endloop
  endfacet
  facet normal 0 0 -1
    outer loop
      vertex 73.0836 -24.4042 -40
      vertex 73.3611 -11.695 -40
      vertex 78.2518 -12.4747 -40
    endloop
  endfacet
  facet normal 0 0 -1
    outer loop
      vertex 73.0836 -24.4042 -40
      vertex 68.5159 -22.8789 -40
      vertex 73.3611 -11.695 -40
    endloop
  endfacet
  facet normal 0 0 -1
    outer loop
      vertex 64.7214 -35.2671 -40
      vertex 68.5159 -22.8789 -40
      vertex 73.0836 -24.4042 -40
    endloop
  endfacet
  facet normal 0 0 -1
    outer loop
      vertex 64.7214 -35.2671 -40
      vertex 60.6763 -33.0629 -40
      vertex 68.5159 -22.8789 -40
    endloop
  endfacet
  facet normal 0 0 -1
    outer loop
      vertex 53.5304 -44.5887 -40
      vertex 60.6763 -33.0629 -40
      vertex 64.7214 -35.2671 -40
    endloop
  endfacet
  facet normal 0 0 -1
    outer loop
      vertex 53.5304 -44.5887 -40
      vertex 50.1848 -41.8019 -40
      vertex 60.6763 -33.0629 -40
    endloop
  endfacet
  facet normal 0 0 -1
    outer loop
      vertex 40 -51.9615 -40
      vertex 50.1848 -41.8019 -40
      vertex 53.5304 -44.5887 -40
    endloop
  endfacet
  facet normal 0 0 -1
    outer loop
      vertex 40 -51.9615 -40
      vertex 37.5 -48.7139 -40
      vertex 50.1848 -41.8019 -40
    endloop
  endfacet
  facet normal 0 0 -1
    outer loop
      vertex 24.7214 -57.0634 -40
      vertex 37.5 -48.7139 -40
      vertex 40 -51.9615 -40
    endloop
  endfacet
  facet normal 0 0 -1
    outer loop
      vertex 24.7214 -57.0634 -40
      vertex 23.1763 -53.4969 -40
      vertex 37.5 -48.7139 -40
    endloop
  endfacet
  facet normal 0 0 -1
    outer loop
      vertex 8.36228 -59.6713 -40
      vertex 23.1763 -53.4969 -40
      vertex 24.7214 -57.0634 -40
    endloop
  endfacet
  facet normal 0 0 -1
    outer loop
      vertex 8.36228 -59.6713 -40
      vertex 7.83963 -55.9419 -40
      vertex 23.1763 -53.4969 -40
    endloop
  endfacet
  facet normal 0 0 -1
    outer loop
      vertex 8.36228 -59.6713 -40
      vertex -7.83963 -55.9419 -40
      vertex 7.83963 -55.9419 -40
    endloop
  endfacet
  facet normal 0 0 -1
    outer loop
      vertex -8.36228 -59.6713 -40
      vertex -7.83963 -55.9419 -40
      vertex 8.36228 -59.6713 -40
    endloop
  endfacet
  facet normal 0 0 -1
    outer loop
      vertex -8.36228 -59.6713 -40
      vertex -23.1763 -53.4969 -40
      vertex -7.83963 -55.9419 -40
    endloop
  endfacet
  facet normal 0 0 -1
    outer loop
      vertex -24.7214 -57.0634 -40
      vertex -23.1763 -53.4969 -40
      vertex -8.36228 -59.6713 -40
    endloop
  endfacet
  facet normal 0 0 -1
    outer loop
      vertex -24.7214 -57.0634 -40
      vertex -37.5 -48.7139 -40
      vertex -23.1763 -53.4969 -40
    endloop
  endfacet
  facet normal 0 0 -1
    outer loop
      vertex -40 -51.9615 -40
      vertex -37.5 -48.7139 -40
      vertex -24.7214 -57.0634 -40
    endloop
  endfacet
  facet normal 0 0 -1
    outer loop
      vertex -40 -51.9615 -40
      vertex -50.1848 -41.8019 -40
      vertex -37.5 -48.7139 -40
    endloop
  endfacet
  facet normal 0 0 -1
    outer loop
      vertex -53.5304 -44.5887 -40
      vertex -50.1848 -41.8019 -40
      vertex -40 -51.9615 -40
    endloop
  endfacet
  facet normal 0 0 -1
    outer loop
      vertex -53.5304 -44.5887 -40
      vertex -60.6763 -33.0629 -40
      vertex -50.1848 -41.8019 -40
    endloop
  endfacet
  facet normal 0 0 -1
    outer loop
      vertex -64.7214 -35.2671 -40
      vertex -60.6763 -33.0629 -40
      vertex -53.5304 -44.5887 -40
    endloop
  endfacet
  facet normal 0 0 -1
    outer loop
      vertex -64.7214 -35.2671 -40
      vertex -68.5159 -22.8789 -40
      vertex -60.6763 -33.0629 -40
    endloop
  endfacet
  facet normal 0 0 -1
    outer loop
      vertex -73.0836 -24.4042 -40
      vertex -68.5159 -22.8789 -40
      vertex -64.7214 -35.2671 -40
    endloop
  endfacet
  facet normal 0 0 -1
    outer loop
      vertex -73.0836 -24.4042 -40
      vertex -73.3611 -11.695 -40
      vertex -68.5159 -22.8789 -40
    endloop
  endfacet
  facet normal 0 0 -1
    outer loop
      vertex -78.2518 -12.4747 -40
      vertex -73.3611 -11.695 -40
      vertex -73.0836 -24.4042 -40
    endloop
  endfacet
  facet normal -0 0 -1
    outer loop
      vertex -73.3611 -11.695 -40
      vertex -78.2518 -12.4747 -40
      vertex -75 0 -40
    endloop
  endfacet
  facet normal 0 0 -1
    outer loop
      vertex 73.3611 11.695 -40
      vertex 78.2518 12.4747 -40
      vertex 75 0 -40
    endloop
  endfacet
  facet normal 0 0 -1
    outer loop
      vertex 73.3611 11.695 -40
      vertex 73.0836 24.4042 -40
      vertex 78.2518 12.4747 -40
    endloop
  endfacet
  facet normal 0 0 -1
    outer loop
      vertex 68.5159 22.8789 -40
      vertex 73.0836 24.4042 -40
      vertex 73.3611 11.695 -40
    endloop
  endfacet
  facet normal 0 0 -1
    outer loop
      vertex 68.5159 22.8789 -40
      vertex 64.7214 35.2671 -40
      vertex 73.0836 24.4042 -40
    endloop
  endfacet
  facet normal 0 0 -1
    outer loop
      vertex 60.6763 33.0629 -40
      vertex 64.7214 35.2671 -40
      vertex 68.5159 22.8789 -40
    endloop
  endfacet
  facet normal 0 0 -1
    outer loop
      vertex 60.6763 33.0629 -40
      vertex 53.5304 44.5887 -40
      vertex 64.7214 35.2671 -40
    endloop
  endfacet
  facet normal 0 0 -1
    outer loop
      vertex 50.1848 41.8019 -40
      vertex 53.5304 44.5887 -40
      vertex 60.6763 33.0629 -40
    endloop
  endfacet
  facet normal 0 0 -1
    outer loop
      vertex 50.1848 41.8019 -40
      vertex 40 51.9615 -40
      vertex 53.5304 44.5887 -40
    endloop
  endfacet
  facet normal 0 0 -1
    outer loop
      vertex 37.5 48.7139 -40
      vertex 40 51.9615 -40
      vertex 50.1848 41.8019 -40
    endloop
  endfacet
  facet normal 0 0 -1
    outer loop
      vertex 37.5 48.7139 -40
      vertex 24.7214 57.0634 -40
      vertex 40 51.9615 -40
    endloop
  endfacet
  facet normal 0 0 -1
    outer loop
      vertex 23.1763 53.4969 -40
      vertex 24.7214 57.0634 -40
      vertex 37.5 48.7139 -40
    endloop
  endfacet
  facet normal 0 0 -1
    outer loop
      vertex 23.1763 53.4969 -40
      vertex 8.36228 59.6713 -40
      vertex 24.7214 57.0634 -40
    endloop
  endfacet
  facet normal 0 0 -1
    outer loop
      vertex 7.83963 55.9419 -40
      vertex 8.36228 59.6713 -40
      vertex 23.1763 53.4969 -40
    endloop
  endfacet
  facet normal 0 0 -1
    outer loop
      vertex -7.83963 55.9419 -40
      vertex 8.36228 59.6713 -40
      vertex 7.83963 55.9419 -40
    endloop
  endfacet
  facet normal 0 0 -1
    outer loop
      vertex -7.83963 55.9419 -40
      vertex -8.36228 59.6713 -40
      vertex 8.36228 59.6713 -40
    endloop
  endfacet
  facet normal 0 0 -1
    outer loop
      vertex -23.1763 53.4969 -40
      vertex -8.36228 59.6713 -40
      vertex -7.83963 55.9419 -40
    endloop
  endfacet
  facet normal 0 0 -1
    outer loop
      vertex -23.1763 53.4969 -40
      vertex -24.7214 57.0634 -40
      vertex -8.36228 59.6713 -40
    endloop
  endfacet
  facet normal 0 0 -1
    outer loop
      vertex -37.5 48.7139 -40
      vertex -24.7214 57.0634 -40
      vertex -23.1763 53.4969 -40
    endloop
  endfacet
  facet normal 0 0 -1
    outer loop
      vertex -37.5 48.7139 -40
      vertex -40 51.9615 -40
      vertex -24.7214 57.0634 -40
    endloop
  endfacet
  facet normal 0 0 -1
    outer loop
      vertex -50.1848 41.8019 -40
      vertex -40 51.9615 -40
      vertex -37.5 48.7139 -40
    endloop
  endfacet
  facet normal 0 0 -1
    outer loop
      vertex -50.1848 41.8019 -40
      vertex -53.5304 44.5887 -40
      vertex -40 51.9615 -40
    endloop
  endfacet
  facet normal 0 0 -1
    outer loop
      vertex -60.6763 33.0629 -40
      vertex -53.5304 44.5887 -40
      vertex -50.1848 41.8019 -40
    endloop
  endfacet
  facet normal 0 0 -1
    outer loop
      vertex -60.6763 33.0629 -40
      vertex -64.7214 35.2671 -40
      vertex -53.5304 44.5887 -40
    endloop
  endfacet
  facet normal 0 0 -1
    outer loop
      vertex -68.5159 22.8789 -40
      vertex -64.7214 35.2671 -40
      vertex -60.6763 33.0629 -40
    endloop
  endfacet
  facet normal 0 0 -1
    outer loop
      vertex -68.5159 22.8789 -40
      vertex -73.0836 24.4042 -40
      vertex -64.7214 35.2671 -40
    endloop
  endfacet
  facet normal 0 0 -1
    outer loop
      vertex -73.3611 11.695 -40
      vertex -73.0836 24.4042 -40
      vertex -68.5159 22.8789 -40
    endloop
  endfacet
  facet normal 0 0 -1
    outer loop
      vertex -78.2518 12.4747 -40
      vertex -73.3611 11.695 -40
      vertex -75 0 -40
    endloop
  endfacet
  facet normal 0 0 -1
    outer loop
      vertex -80 0 -40
      vertex -75 0 -40
      vertex -78.2518 -12.4747 -40
    endloop
  endfacet
  facet normal 0 0 -1
    outer loop
      vertex -73.3611 11.695 -40
      vertex -78.2518 12.4747 -40
      vertex -73.0836 24.4042 -40
    endloop
  endfacet
  facet normal 0 0 -1
    outer loop
      vertex -75 0 -40
      vertex -80 0 -40
      vertex -78.2518 12.4747 -40
    endloop
  endfacet
  facet normal -0.917591 -0.397525 0
    outer loop
      vertex -73.0836 -24.4042 -40
      vertex -78.2518 -12.4747 40
      vertex -78.2518 -12.4747 -40
    endloop
  endfacet
  facet normal -0.917591 -0.397525 0
    outer loop
      vertex -78.2518 -12.4747 40
      vertex -73.0836 -24.4042 -40
      vertex -73.0836 -24.4042 40
    endloop
  endfacet
  facet normal -0.640015 -0.768363 0
    outer loop
      vertex -64.7214 -35.2671 -40
      vertex -53.5304 -44.5887 40
      vertex -64.7214 -35.2671 40
    endloop
  endfacet
  facet normal -0.640015 -0.768363 -0
    outer loop
      vertex -53.5304 -44.5887 40
      vertex -64.7214 -35.2671 -40
      vertex -53.5304 -44.5887 -40
    endloop
  endfacet
  facet normal 0.640015 -0.768363 0
    outer loop
      vertex 53.5304 -44.5887 -40
      vertex 64.7214 -35.2671 40
      vertex 53.5304 -44.5887 40
    endloop
  endfacet
  facet normal 0.640015 -0.768363 0
    outer loop
      vertex 64.7214 -35.2671 40
      vertex 53.5304 -44.5887 -40
      vertex 64.7214 -35.2671 -40
    endloop
  endfacet
  facet normal -0.31673 -0.948516 0
    outer loop
      vertex -40 -51.9615 -40
      vertex -24.7214 -57.0634 40
      vertex -40 -51.9615 40
    endloop
  endfacet
  facet normal -0.31673 -0.948516 -0
    outer loop
      vertex -24.7214 -57.0634 40
      vertex -40 -51.9615 -40
      vertex -24.7214 -57.0634 -40
    endloop
  endfacet
  facet normal -0.478482 -0.878098 0
    outer loop
      vertex -53.5304 -44.5887 -40
      vertex -40 -51.9615 40
      vertex -53.5304 -44.5887 40
    endloop
  endfacet
  facet normal -0.478482 -0.878098 -0
    outer loop
      vertex -40 -51.9615 40
      vertex -53.5304 -44.5887 -40
      vertex -40 -51.9615 -40
    endloop
  endfacet
  facet normal -0.990323 -0.138783 0
    outer loop
      vertex 75 0 -40
      vertex 73.3611 11.695 40
      vertex 73.3611 11.695 -40
    endloop
  endfacet
  facet normal -0.990323 -0.138783 0
    outer loop
      vertex 73.3611 11.695 40
      vertex 75 0 -40
      vertex 75 0 40
    endloop
  endfacet
  facet normal 0.990323 -0.138783 0
    outer loop
      vertex -75 0 40
      vertex -73.3611 11.695 -40
      vertex -73.3611 11.695 40
    endloop
  endfacet
  facet normal 0.990323 -0.138783 0
    outer loop
      vertex -73.3611 11.695 -40
      vertex -75 0 40
      vertex -75 0 -40
    endloop
  endfacet
  facet normal 0 -1 0
    outer loop
      vertex -7.83963 55.9419 -40
      vertex 7.83963 55.9419 40
      vertex -7.83963 55.9419 40
    endloop
  endfacet
  facet normal 0 -1 -0
    outer loop
      vertex 7.83963 55.9419 40
      vertex -7.83963 55.9419 -40
      vertex 7.83963 55.9419 -40
    endloop
  endfacet
  facet normal 0 1 -0
    outer loop
      vertex 7.83963 -55.9419 -40
      vertex -7.83963 -55.9419 40
      vertex 7.83963 -55.9419 40
    endloop
  endfacet
  facet normal 0 1 0
    outer loop
      vertex -7.83963 -55.9419 40
      vertex 7.83963 -55.9419 -40
      vertex -7.83963 -55.9419 -40
    endloop
  endfacet
  facet normal -0.640015 -0.768363 0
    outer loop
      vertex 50.1848 41.8019 -40
      vertex 60.6763 33.0629 40
      vertex 50.1848 41.8019 40
    endloop
  endfacet
  facet normal -0.640015 -0.768363 -0
    outer loop
      vertex 60.6763 33.0629 40
      vertex 50.1848 41.8019 -40
      vertex 60.6763 33.0629 -40
    endloop
  endfacet
  facet normal -0.917591 -0.397525 0
    outer loop
      vertex 73.3611 11.695 -40
      vertex 68.5159 22.8789 40
      vertex 68.5159 22.8789 -40
    endloop
  endfacet
  facet normal -0.917591 -0.397525 0
    outer loop
      vertex 68.5159 22.8789 40
      vertex 73.3611 11.695 -40
      vertex 73.3611 11.695 40
    endloop
  endfacet
  facet normal 0.478481 -0.878098 0
    outer loop
      vertex -50.1848 41.8019 -40
      vertex -37.5 48.7139 40
      vertex -50.1848 41.8019 40
    endloop
  endfacet
  facet normal 0.478481 -0.878098 0
    outer loop
      vertex -37.5 48.7139 40
      vertex -50.1848 41.8019 -40
      vertex -37.5 48.7139 -40
    endloop
  endfacet
  facet normal 0.15743 -0.98753 0
    outer loop
      vertex -23.1763 53.4969 -40
      vertex -7.83963 55.9419 40
      vertex -23.1763 53.4969 40
    endloop
  endfacet
  facet normal 0.15743 -0.98753 0
    outer loop
      vertex -7.83963 55.9419 40
      vertex -23.1763 53.4969 -40
      vertex -7.83963 55.9419 -40
    endloop
  endfacet
  facet normal -0.917591 0.397525 0
    outer loop
      vertex 68.5159 -22.8789 -40
      vertex 73.3611 -11.695 40
      vertex 73.3611 -11.695 -40
    endloop
  endfacet
  facet normal -0.917591 0.397525 0
    outer loop
      vertex 73.3611 -11.695 40
      vertex 68.5159 -22.8789 -40
      vertex 68.5159 -22.8789 40
    endloop
  endfacet
  facet normal -0.792406 -0.609994 0
    outer loop
      vertex 68.5159 22.8789 -40
      vertex 60.6763 33.0629 40
      vertex 60.6763 33.0629 -40
    endloop
  endfacet
  facet normal -0.792406 -0.609994 0
    outer loop
      vertex 60.6763 33.0629 40
      vertex 68.5159 22.8789 -40
      vertex 68.5159 22.8789 40
    endloop
  endfacet
  facet normal -0.31673 -0.948516 0
    outer loop
      vertex 23.1763 53.4969 -40
      vertex 37.5 48.7139 40
      vertex 23.1763 53.4969 40
    endloop
  endfacet
  facet normal -0.31673 -0.948516 -0
    outer loop
      vertex 37.5 48.7139 40
      vertex 23.1763 53.4969 -40
      vertex 37.5 48.7139 -40
    endloop
  endfacet
  facet normal -0.15743 -0.98753 0
    outer loop
      vertex 7.83963 55.9419 -40
      vertex 23.1763 53.4969 40
      vertex 7.83963 55.9419 40
    endloop
  endfacet
  facet normal -0.15743 -0.98753 -0
    outer loop
      vertex 23.1763 53.4969 40
      vertex 7.83963 55.9419 -40
      vertex 23.1763 53.4969 -40
    endloop
  endfacet
  facet normal -0.478481 -0.878098 0
    outer loop
      vertex 37.5 48.7139 -40
      vertex 50.1848 41.8019 40
      vertex 37.5 48.7139 40
    endloop
  endfacet
  facet normal -0.478481 -0.878098 -0
    outer loop
      vertex 50.1848 41.8019 40
      vertex 37.5 48.7139 -40
      vertex 50.1848 41.8019 -40
    endloop
  endfacet
  facet normal 0.792406 -0.609994 0
    outer loop
      vertex -68.5159 22.8789 40
      vertex -60.6763 33.0629 -40
      vertex -60.6763 33.0629 40
    endloop
  endfacet
  facet normal 0.792406 -0.609994 0
    outer loop
      vertex -60.6763 33.0629 -40
      vertex -68.5159 22.8789 40
      vertex -68.5159 22.8789 -40
    endloop
  endfacet
  facet normal 0.640015 -0.768363 0
    outer loop
      vertex -60.6763 33.0629 -40
      vertex -50.1848 41.8019 40
      vertex -60.6763 33.0629 40
    endloop
  endfacet
  facet normal 0.640015 -0.768363 0
    outer loop
      vertex -50.1848 41.8019 40
      vertex -60.6763 33.0629 -40
      vertex -50.1848 41.8019 -40
    endloop
  endfacet
  facet normal 0.917591 -0.397525 0
    outer loop
      vertex -73.3611 11.695 40
      vertex -68.5159 22.8789 -40
      vertex -68.5159 22.8789 40
    endloop
  endfacet
  facet normal 0.917591 -0.397525 0
    outer loop
      vertex -68.5159 22.8789 -40
      vertex -73.3611 11.695 40
      vertex -73.3611 11.695 -40
    endloop
  endfacet
  facet normal 0.31673 -0.948516 0
    outer loop
      vertex -37.5 48.7139 -40
      vertex -23.1763 53.4969 40
      vertex -37.5 48.7139 40
    endloop
  endfacet
  facet normal 0.31673 -0.948516 0
    outer loop
      vertex -23.1763 53.4969 40
      vertex -37.5 48.7139 -40
      vertex -23.1763 53.4969 -40
    endloop
  endfacet
  facet normal -0.990323 0.138783 0
    outer loop
      vertex 73.3611 -11.695 -40
      vertex 75 0 40
      vertex 75 0 -40
    endloop
  endfacet
  facet normal -0.990323 0.138783 0
    outer loop
      vertex 75 0 40
      vertex 73.3611 -11.695 -40
      vertex 73.3611 -11.695 40
    endloop
  endfacet
  facet normal -0.792406 0.609994 0
    outer loop
      vertex 60.6763 -33.0629 -40
      vertex 68.5159 -22.8789 40
      vertex 68.5159 -22.8789 -40
    endloop
  endfacet
  facet normal -0.792406 0.609994 0
    outer loop
      vertex 68.5159 -22.8789 40
      vertex 60.6763 -33.0629 -40
      vertex 60.6763 -33.0629 40
    endloop
  endfacet
  facet normal 0.792406 0.609994 0
    outer loop
      vertex -60.6763 -33.0629 40
      vertex -68.5159 -22.8789 -40
      vertex -68.5159 -22.8789 40
    endloop
  endfacet
  facet normal 0.792406 0.609994 0
    outer loop
      vertex -68.5159 -22.8789 -40
      vertex -60.6763 -33.0629 40
      vertex -60.6763 -33.0629 -40
    endloop
  endfacet
  facet normal 0.640015 0.768363 -0
    outer loop
      vertex -50.1848 -41.8019 -40
      vertex -60.6763 -33.0629 40
      vertex -50.1848 -41.8019 40
    endloop
  endfacet
  facet normal 0.640015 0.768363 0
    outer loop
      vertex -60.6763 -33.0629 40
      vertex -50.1848 -41.8019 -40
      vertex -60.6763 -33.0629 -40
    endloop
  endfacet
  facet normal -0.478481 0.878098 0
    outer loop
      vertex 50.1848 -41.8019 -40
      vertex 37.5 -48.7139 40
      vertex 50.1848 -41.8019 40
    endloop
  endfacet
  facet normal -0.478481 0.878098 0
    outer loop
      vertex 37.5 -48.7139 40
      vertex 50.1848 -41.8019 -40
      vertex 37.5 -48.7139 -40
    endloop
  endfacet
  facet normal 0.15743 0.98753 -0
    outer loop
      vertex -7.83963 -55.9419 -40
      vertex -23.1763 -53.4969 40
      vertex -7.83963 -55.9419 40
    endloop
  endfacet
  facet normal 0.15743 0.98753 0
    outer loop
      vertex -23.1763 -53.4969 40
      vertex -7.83963 -55.9419 -40
      vertex -23.1763 -53.4969 -40
    endloop
  endfacet
  facet normal 0.917591 0.397525 0
    outer loop
      vertex -68.5159 -22.8789 40
      vertex -73.3611 -11.695 -40
      vertex -73.3611 -11.695 40
    endloop
  endfacet
  facet normal 0.917591 0.397525 0
    outer loop
      vertex -73.3611 -11.695 -40
      vertex -68.5159 -22.8789 40
      vertex -68.5159 -22.8789 -40
    endloop
  endfacet
  facet normal 0.990323 0.138783 0
    outer loop
      vertex -73.3611 -11.695 40
      vertex -75 0 -40
      vertex -75 0 40
    endloop
  endfacet
  facet normal 0.990323 0.138783 0
    outer loop
      vertex -75 0 -40
      vertex -73.3611 -11.695 40
      vertex -73.3611 -11.695 -40
    endloop
  endfacet
  facet normal -0.31673 0.948516 0
    outer loop
      vertex 37.5 -48.7139 -40
      vertex 23.1763 -53.4969 40
      vertex 37.5 -48.7139 40
    endloop
  endfacet
  facet normal -0.31673 0.948516 0
    outer loop
      vertex 23.1763 -53.4969 40
      vertex 37.5 -48.7139 -40
      vertex 23.1763 -53.4969 -40
    endloop
  endfacet
  facet normal -0.15743 0.98753 0
    outer loop
      vertex 23.1763 -53.4969 -40
      vertex 7.83963 -55.9419 40
      vertex 23.1763 -53.4969 40
    endloop
  endfacet
  facet normal -0.15743 0.98753 0
    outer loop
      vertex 7.83963 -55.9419 40
      vertex 23.1763 -53.4969 -40
      vertex 7.83963 -55.9419 -40
    endloop
  endfacet
  facet normal -0.640015 0.768363 0
    outer loop
      vertex 60.6763 -33.0629 -40
      vertex 50.1848 -41.8019 40
      vertex 60.6763 -33.0629 40
    endloop
  endfacet
  facet normal -0.640015 0.768363 0
    outer loop
      vertex 50.1848 -41.8019 40
      vertex 60.6763 -33.0629 -40
      vertex 50.1848 -41.8019 -40
    endloop
  endfacet
  facet normal 0.31673 0.948516 -0
    outer loop
      vertex -23.1763 -53.4969 -40
      vertex -37.5 -48.7139 40
      vertex -23.1763 -53.4969 40
    endloop
  endfacet
  facet normal 0.31673 0.948516 0
    outer loop
      vertex -37.5 -48.7139 40
      vertex -23.1763 -53.4969 -40
      vertex -37.5 -48.7139 -40
    endloop
  endfacet
  facet normal 0.478481 0.878098 -0
    outer loop
      vertex -37.5 -48.7139 -40
      vertex -50.1848 -41.8019 40
      vertex -37.5 -48.7139 40
    endloop
  endfacet
  facet normal 0.478481 0.878098 0
    outer loop
      vertex -50.1848 -41.8019 40
      vertex -37.5 -48.7139 -40
      vertex -50.1848 -41.8019 -40
    endloop
  endfacet
endsolid OpenSCAD_Model
