solid OpenSCAD_Model
  facet normal 0.992705 0.107517 0.054553
    outer loop
      vertex 9.13545 12.2021 0
      vertex 8.93582 11.9355 4.15823
      vertex 9.56773 6.10105 4.15823
    endloop
  endfacet
  facet normal -0.898271 0.269602 0.347022
    outer loop
      vertex -6.11281 20.3669 8.13473
      vertex -7.39074 16.1091 8.13473
      vertex -6.54508 14.2658 11.7557
    endloop
  endfacet
  facet normal 0.664838 -0.0232923 0.746625
    outer loop
      vertex 5 0 17.3205
      vertex 3.09017 0 19.0211
      vertex 4.89074 -3.11868 17.3205
    endloop
  endfacet
  facet normal 0.600594 -0.449653 0.661135
    outer loop
      vertex 4.04508 -21.0189 11.7557
      vertex 2.06773 -19.0914 14.8629
      vertex 2.5 -23.0826 11.7557
    endloop
  endfacet
  facet normal 0.980302 0.106173 0.166538
    outer loop
      vertex 9.56773 6.10105 4.15823
      vertex 8.34565 11.1472 8.13473
      vertex 8.93582 5.6981 8.13473
    endloop
  endfacet
  facet normal -0.829576 -0.248985 0.49981
    outer loop
      vertex -5.41338 -11.7992 14.8629
      vertex -6.54508 -14.2658 11.7557
      vertex -4.47736 -14.9178 14.8629
    endloop
  endfacet
  facet normal 0.624228 0.286392 0.726855
    outer loop
      vertex 3.34565 17.3845 14.8629
      vertex 2.5 12.9904 17.3205
      vertex 3.34565 11.1472 17.3205
    endloop
  endfacet
  facet normal -0.90044 -0.0975236 0.423907
    outer loop
      vertex -6.54508 -4.1736 14.8629
      vertex -7.91338 -5.04612 11.7557
      vertex -7.39074 -9.87171 11.7557
    endloop
  endfacet
  facet normal 0.960225 0.0336414 0.277193
    outer loop
      vertex 8.93582 5.6981 8.13473
      vertex 7.91338 5.04612 11.7557
      vertex 8.09017 0 11.7557
    endloop
  endfacet
  facet normal -0.496097 0.777985 0.385522
    outer loop
      vertex -1.75 27.9235 5.76502
      vertex -2.82301 26.065 8.13473
      vertex -1.75 26.7492 8.13473
    endloop
  endfacet
  facet normal -0.881802 -0.404566 0.242389
    outer loop
      vertex -4.56773 -23.7346 8.13473
      vertex -6.54508 -21.8072 4.15823
      vertex -4.89074 -25.413 4.15823
    endloop
  endfacet
  facet normal -0.952228 -0.103132 0.287447
    outer loop
      vertex -7.91338 -5.04612 11.7557
      vertex -8.93582 -5.6981 8.13473
      vertex -7.39074 -9.87171 11.7557
    endloop
  endfacet
  facet normal -0.823433 0.0288486 0.566679
    outer loop
      vertex -4.89074 3.11868 17.3205
      vertex -6.54508 4.1736 14.8629
      vertex -5 0 17.3205
    endloop
  endfacet
  facet normal -0.532817 0.835564 0.133937
    outer loop
      vertex -1.04528 29.8357 0
      vertex -1.43263 29.0543 3.33333
      vertex -1.02697 29.313 3.33333
    endloop
  endfacet
  facet normal -0.532814 0.835566 0.133938
    outer loop
      vertex -1.43263 29.0543 3.33333
      vertex -1.04528 29.8357 0
      vertex -3.09017 28.5317 0
    endloop
  endfacet
  facet normal 0.980302 0.106173 0.166538
    outer loop
      vertex 8.93582 11.9355 4.15823
      vertex 8.34565 11.1472 8.13473
      vertex 9.56773 6.10105 4.15823
    endloop
  endfacet
  facet normal 0.90044 -0.0975236 0.423907
    outer loop
      vertex 6.54508 -4.1736 14.8629
      vertex 6.11281 -8.1648 14.8629
      vertex 7.39074 -9.87171 11.7557
    endloop
  endfacet
  facet normal 0.664838 0.0232923 0.746625
    outer loop
      vertex 4.89074 3.11868 17.3205
      vertex 3.09017 0 19.0211
      vertex 5 0 17.3205
    endloop
  endfacet
  facet normal 0.391192 0.0137053 0.920207
    outer loop
      vertex 1.75 0.686928 19.5806
      vertex 3.09017 0 19.0211
      vertex 3.02264 1.92745 19.0211
    endloop
  endfacet
  facet normal 0.391192 0.0137054 0.920207
    outer loop
      vertex 3.09017 0 19.0211
      vertex 1.75 0.686928 19.5806
      vertex 1.75 0 19.5909
    endloop
  endfacet
  facet normal 0.830725 0.381131 0.405753
    outer loop
      vertex 6.11281 20.3669 8.13473
      vertex 4.04508 21.0189 11.7557
      vertex 5.41338 18.0365 11.7557
    endloop
  endfacet
  facet normal 0.898271 0.269602 0.347023
    outer loop
      vertex 6.11281 20.3669 8.13473
      vertex 5.41338 18.0365 11.7557
      vertex 6.54508 14.2658 11.7557
    endloop
  endfacet
  facet normal 0.808553 -0.0875716 0.58187
    outer loop
      vertex 4.89074 -3.11868 17.3205
      vertex 4.56773 -6.10105 17.3205
      vertex 6.54508 -4.1736 14.8629
    endloop
  endfacet
  facet normal 0.992705 -0.107517 0.054553
    outer loop
      vertex 9.56773 -6.10105 4.15823
      vertex 8.93582 -11.9355 4.15823
      vertex 9.13545 -12.2021 0
    endloop
  endfacet
  facet normal 0.696946 -0.521789 0.491937
    outer loop
      vertex 4.04508 -21.0189 11.7557
      vertex 2.5 -23.0826 11.7557
      vertex 2.82301 -26.065 8.13473
    endloop
  endfacet
  facet normal -0.93375 0.1797 0.309545
    outer loop
      vertex -7.39074 16.1091 8.13473
      vertex -8.34565 11.1472 8.13473
      vertex -6.54508 14.2658 11.7557
    endloop
  endfacet
  facet normal -0.980302 0.106173 0.166538
    outer loop
      vertex -8.34565 11.1472 8.13473
      vertex -9.56773 6.10105 4.15823
      vertex -8.93582 5.6981 8.13473
    endloop
  endfacet
  facet normal -0.696946 0.521789 0.491937
    outer loop
      vertex -2.82301 26.065 8.13473
      vertex -4.04508 21.0189 11.7557
      vertex -2.5 23.0826 11.7557
    endloop
  endfacet
  facet normal -0.664838 0.0232923 0.746625
    outer loop
      vertex -4.89074 3.11868 17.3205
      vertex -5 0 17.3205
      vertex -3.09017 0 19.0211
    endloop
  endfacet
  facet normal 0.775774 -0.149298 0.613095
    outer loop
      vertex 4.56773 -6.10105 17.3205
      vertex 4.04508 -8.81678 17.3205
      vertex 6.11281 -8.1648 14.8629
    endloop
  endfacet
  facet normal -0.93375 -0.1797 0.309545
    outer loop
      vertex -6.54508 -14.2658 11.7557
      vertex -8.34565 -11.1472 8.13473
      vertex -7.39074 -16.1091 8.13473
    endloop
  endfacet
  facet normal 0.762866 -0.571142 0.303037
    outer loop
      vertex 4.56773 -23.7346 8.13473
      vertex 2.82301 -26.065 8.13473
      vertex 3.02264 -27.9082 4.15823
    endloop
  endfacet
  facet normal 0.829576 -0.248985 0.49981
    outer loop
      vertex 5.41338 -11.7992 14.8629
      vertex 4.47736 -14.9178 14.8629
      vertex 6.54508 -14.2658 11.7557
    endloop
  endfacet
  facet normal 0.775774 -0.149298 0.613095
    outer loop
      vertex 6.11281 -8.1648 14.8629
      vertex 4.04508 -8.81678 17.3205
      vertex 5.41338 -11.7992 14.8629
    endloop
  endfacet
  facet normal 0.477162 -0.357241 0.802929
    outer loop
      vertex 1.75 -14.6208 17.0408
      vertex 2.5 -12.9904 17.3205
      vertex 1.75 -13.9921 17.3205
    endloop
  endfacet
  facet normal 0.477164 -0.357242 0.802928
    outer loop
      vertex 2.5 -12.9904 17.3205
      vertex 1.75 -14.6208 17.0408
      vertex 3.34565 -17.3845 14.8629
    endloop
  endfacet
  facet normal 0.664838 0.0232925 0.746625
    outer loop
      vertex 4.89074 3.11868 17.3205
      vertex 3.02264 1.92745 19.0211
      vertex 3.09017 0 19.0211
    endloop
  endfacet
  facet normal 0.823433 0.0288486 0.566679
    outer loop
      vertex 6.54508 4.1736 14.8629
      vertex 4.89074 3.11868 17.3205
      vertex 5 0 17.3205
    endloop
  endfacet
  facet normal 0.90044 0.0975236 0.423907
    outer loop
      vertex 7.39074 9.87171 11.7557
      vertex 6.11281 8.1648 14.8629
      vertex 6.54508 4.1736 14.8629
    endloop
  endfacet
  facet normal 0.875602 0.16851 0.452687
    outer loop
      vertex 6.54508 14.2658 11.7557
      vertex 6.11281 8.1648 14.8629
      vertex 7.39074 9.87171 11.7557
    endloop
  endfacet
  facet normal 0.747283 0.342849 0.56923
    outer loop
      vertex 5.41338 18.0365 11.7557
      vertex 4.04508 21.0189 11.7557
      vertex 4.47736 14.9178 14.8629
    endloop
  endfacet
  facet normal 0.93375 0.1797 0.309545
    outer loop
      vertex 7.39074 16.1091 8.13473
      vertex 6.54508 14.2658 11.7557
      vertex 8.34565 11.1472 8.13473
    endloop
  endfacet
  facet normal 0.718276 -0.21558 0.661517
    outer loop
      vertex 5.41338 -11.7992 14.8629
      vertex 4.04508 -8.81678 17.3205
      vertex 4.47736 -14.9178 14.8629
    endloop
  endfacet
  facet normal -0.830725 0.381131 0.405753
    outer loop
      vertex -4.04508 21.0189 11.7557
      vertex -6.11281 20.3669 8.13473
      vertex -5.41338 18.0365 11.7557
    endloop
  endfacet
  facet normal -0.301506 -0.0904952 0.94916
    outer loop
      vertex -1.75 -5.57739 19.2471
      vertex -2.06773 -6.88933 19.0211
      vertex -1.75 -5.83072 19.223
    endloop
  endfacet
  facet normal -0.875602 0.16851 0.452687
    outer loop
      vertex -6.54508 14.2658 11.7557
      vertex -7.39074 9.87171 11.7557
      vertex -6.11281 8.1648 14.8629
    endloop
  endfacet
  facet normal -0.937676 0.281429 0.203864
    outer loop
      vertex -6.54508 21.8072 4.15823
      vertex -7.91338 17.2482 4.15823
      vertex -7.39074 16.1091 8.13473
    endloop
  endfacet
  facet normal -0.998011 0.034965 0.0524478
    outer loop
      vertex -9.56773 6.10105 4.15823
      vertex -10 0 0
      vertex -9.78148 0 4.15823
    endloop
  endfacet
  facet normal -0.986469 -0.0345607 0.160262
    outer loop
      vertex -9.13545 0 8.13473
      vertex -9.56773 -6.10105 4.15823
      vertex -8.93582 -5.6981 8.13473
    endloop
  endfacet
  facet normal -0.952228 -0.103133 0.287447
    outer loop
      vertex -7.39074 -9.87171 11.7557
      vertex -8.93582 -5.6981 8.13473
      vertex -8.34565 -11.1472 8.13473
    endloop
  endfacet
  facet normal -0.937676 -0.281429 0.203864
    outer loop
      vertex -7.39074 -16.1091 8.13473
      vertex -7.91338 -17.2482 4.15823
      vertex -6.54508 -21.8072 4.15823
    endloop
  endfacet
  facet normal 0.998011 0.0349652 0.0524474
    outer loop
      vertex 9.78148 6.23735 0
      vertex 9.56773 6.10105 4.15823
      vertex 10 0 0
    endloop
  endfacet
  facet normal -0.955625 0.286816 0.0672077
    outer loop
      vertex -6.54508 21.8072 4.15823
      vertex -8.09017 17.6336 0
      vertex -7.91338 17.2482 4.15823
    endloop
  endfacet
  facet normal 0.496097 0.777985 0.385522
    outer loop
      vertex 1.75 27.9235 5.76502
      vertex 1.75 26.7492 8.13473
      vertex 2.82301 26.065 8.13473
    endloop
  endfacet
  facet normal 0.496097 0.777985 0.385521
    outer loop
      vertex 3.02264 27.9082 4.15823
      vertex 1.75 27.9235 5.76502
      vertex 2.82301 26.065 8.13473
    endloop
  endfacet
  facet normal 0.496097 0.777985 0.385522
    outer loop
      vertex 1.75 27.9235 5.76502
      vertex 3.02264 27.9082 4.15823
      vertex 1.75 28.7197 4.15823
    endloop
  endfacet
  facet normal 0.955625 -0.286816 0.0672077
    outer loop
      vertex 7.91338 -17.2482 4.15823
      vertex 6.54508 -21.8072 4.15823
      vertex 8.09017 -17.6336 0
    endloop
  endfacet
  facet normal 0.952228 0.103133 0.287447
    outer loop
      vertex 8.34565 11.1472 8.13473
      vertex 7.39074 9.87171 11.7557
      vertex 8.93582 5.6981 8.13473
    endloop
  endfacet
  facet normal 0.911388 0.0319303 0.410308
    outer loop
      vertex 7.91338 5.04612 11.7557
      vertex 6.54508 4.1736 14.8629
      vertex 8.09017 0 11.7557
    endloop
  endfacet
  facet normal 0.986469 -0.0345606 0.160262
    outer loop
      vertex 9.78148 0 4.15823
      vertex 9.13545 0 8.13473
      vertex 9.56773 -6.10105 4.15823
    endloop
  endfacet
  facet normal -0.264481 -0.414764 0.870644
    outer loop
      vertex -1.75 -16.1578 16.3569
      vertex -2.06773 -19.0914 14.8629
      vertex -1.75 -19.294 14.8629
    endloop
  endfacet
  facet normal 0.980302 -0.106173 0.166538
    outer loop
      vertex 9.56773 -6.10105 4.15823
      vertex 8.34565 -11.1472 8.13473
      vertex 8.93582 -11.9355 4.15823
    endloop
  endfacet
  facet normal 0.911388 -0.0319303 0.410308
    outer loop
      vertex 8.09017 0 11.7557
      vertex 6.54508 -4.1736 14.8629
      vertex 7.91338 -5.04612 11.7557
    endloop
  endfacet
  facet normal 0.431693 -0.676984 0.596099
    outer loop
      vertex 1.75 -25.0191 10.0996
      vertex 2.5 -23.0826 11.7557
      vertex 1.75 -23.5609 11.7557
    endloop
  endfacet
  facet normal 0.431692 -0.676984 0.5961
    outer loop
      vertex 2.5 -23.0826 11.7557
      vertex 1.75 -25.0191 10.0996
      vertex 2.82301 -26.065 8.13473
    endloop
  endfacet
  facet normal 0.881802 -0.404565 0.242389
    outer loop
      vertex 6.11281 -20.3669 8.13473
      vertex 4.56773 -23.7346 8.13473
      vertex 6.54508 -21.8072 4.15823
    endloop
  endfacet
  facet normal 0.937676 -0.281429 0.203864
    outer loop
      vertex 7.39074 -16.1091 8.13473
      vertex 6.54508 -21.8072 4.15823
      vertex 7.91338 -17.2482 4.15823
    endloop
  endfacet
  facet normal 0.346393 0.0666608 0.935718
    outer loop
      vertex 1.75 2.72473 19.4929
      vertex 1.75 2.33745 19.5204
      vertex 2.82301 3.77066 19.0211
    endloop
  endfacet
  facet normal 0.608555 0.117117 0.784821
    outer loop
      vertex 4.04508 8.81678 17.3205
      vertex 2.5 5.44907 19.0211
      vertex 4.56773 6.10105 17.3205
    endloop
  endfacet
  facet normal -0.905952 0.415645 0.0805545
    outer loop
      vertex -5 25.9808 0
      vertex -6.69131 22.2943 0
      vertex -6.54508 21.8072 4.15823
    endloop
  endfacet
  facet normal 0.775774 0.149298 0.613095
    outer loop
      vertex 5.41338 11.7992 14.8629
      vertex 4.04508 8.81678 17.3205
      vertex 6.11281 8.1648 14.8629
    endloop
  endfacet
  facet normal 0.93375 0.1797 0.309545
    outer loop
      vertex 8.34565 11.1472 8.13473
      vertex 6.54508 14.2658 11.7557
      vertex 7.39074 9.87171 11.7557
    endloop
  endfacet
  facet normal 0.775774 0.149298 0.613095
    outer loop
      vertex 6.11281 8.1648 14.8629
      vertex 4.04508 8.81678 17.3205
      vertex 4.56773 6.10105 17.3205
    endloop
  endfacet
  facet normal 0.747283 0.342849 0.569231
    outer loop
      vertex 4.04508 21.0189 11.7557
      vertex 3.34565 17.3845 14.8629
      vertex 4.47736 14.9178 14.8629
    endloop
  endfacet
  facet normal 0.829576 0.248985 0.49981
    outer loop
      vertex 5.41338 18.0365 11.7557
      vertex 4.47736 14.9178 14.8629
      vertex 6.54508 14.2658 11.7557
    endloop
  endfacet
  facet normal 0.624228 0.286392 0.726855
    outer loop
      vertex 3.34565 17.3845 14.8629
      vertex 3.34565 11.1472 17.3205
      vertex 4.47736 14.9178 14.8629
    endloop
  endfacet
  facet normal 0.875602 0.16851 0.452687
    outer loop
      vertex 6.54508 14.2658 11.7557
      vertex 5.41338 11.7992 14.8629
      vertex 6.11281 8.1648 14.8629
    endloop
  endfacet
  facet normal 0.532814 0.835566 0.133938
    outer loop
      vertex 1.04528 29.8357 0
      vertex 1.43263 29.0543 3.33333
      vertex 3.09017 28.5317 0
    endloop
  endfacet
  facet normal 0.532817 0.835564 0.133937
    outer loop
      vertex 1.43263 29.0543 3.33333
      vertex 1.04528 29.8357 0
      vertex 1.02697 29.313 3.33333
    endloop
  endfacet
  facet normal 0.955625 0.286816 0.0672077
    outer loop
      vertex 8.09017 17.6336 0
      vertex 6.54508 21.8072 4.15823
      vertex 7.91338 17.2482 4.15823
    endloop
  endfacet
  facet normal 0.965905 0.185888 0.180204
    outer loop
      vertex 7.91338 17.2482 4.15823
      vertex 7.39074 16.1091 8.13473
      vertex 8.93582 11.9355 4.15823
    endloop
  endfacet
  facet normal 0.992705 0.107516 0.0545528
    outer loop
      vertex 9.78148 6.23735 0
      vertex 9.13545 12.2021 0
      vertex 9.56773 6.10105 4.15823
    endloop
  endfacet
  facet normal 0.796306 0.596177 0.102323
    outer loop
      vertex 5 25.9808 0
      vertex 3.02264 27.9082 4.15823
      vertex 4.89074 25.413 4.15823
    endloop
  endfacet
  facet normal 0.898271 0.269602 0.347022
    outer loop
      vertex 7.39074 16.1091 8.13473
      vertex 6.11281 20.3669 8.13473
      vertex 6.54508 14.2658 11.7557
    endloop
  endfacet
  facet normal -0.808553 0.0875716 0.58187
    outer loop
      vertex -4.56773 6.10105 17.3205
      vertex -6.54508 4.1736 14.8629
      vertex -4.89074 3.11868 17.3205
    endloop
  endfacet
  facet normal -0.998011 0.0349652 0.0524474
    outer loop
      vertex -9.78148 6.23735 0
      vertex -10 0 0
      vertex -9.56773 6.10105 4.15823
    endloop
  endfacet
  facet normal -0.992705 0.107516 0.0545528
    outer loop
      vertex -9.13545 12.2021 0
      vertex -9.78148 6.23735 0
      vertex -9.56773 6.10105 4.15823
    endloop
  endfacet
  facet normal -0.898271 0.269602 0.347023
    outer loop
      vertex -6.11281 20.3669 8.13473
      vertex -6.54508 14.2658 11.7557
      vertex -5.41338 18.0365 11.7557
    endloop
  endfacet
  facet normal -0.960225 -0.0336413 0.277193
    outer loop
      vertex -8.09017 0 11.7557
      vertex -9.13545 0 8.13473
      vertex -8.93582 -5.6981 8.13473
    endloop
  endfacet
  facet normal -0.980261 0.188651 0.0591583
    outer loop
      vertex -8.09017 17.6336 0
      vertex -9.13545 12.2021 0
      vertex -8.93582 11.9355 4.15823
    endloop
  endfacet
  facet normal 0.455442 0.208954 0.865396
    outer loop
      vertex 1.75 8.38342 18.8276
      vertex 2.06773 6.88933 19.0211
      vertex 3.34565 11.1472 17.3205
    endloop
  endfacet
  facet normal 0.455442 0.208954 0.865397
    outer loop
      vertex 2.06773 6.88933 19.0211
      vertex 1.75 8.38342 18.8276
      vertex 1.75 7.58186 19.0211
    endloop
  endfacet
  facet normal -0.960225 -0.0336414 0.277193
    outer loop
      vertex -8.09017 0 11.7557
      vertex -8.93582 -5.6981 8.13473
      vertex -7.91338 -5.04612 11.7557
    endloop
  endfacet
  facet normal -0.911388 -0.0319303 0.410308
    outer loop
      vertex -6.54508 -4.1736 14.8629
      vertex -8.09017 0 11.7557
      vertex -7.91338 -5.04612 11.7557
    endloop
  endfacet
  facet normal -0.980261 -0.188651 0.0591584
    outer loop
      vertex -7.91338 -17.2482 4.15823
      vertex -8.93582 -11.9355 4.15823
      vertex -8.09017 -17.6336 0
    endloop
  endfacet
  facet normal -0.992705 -0.107516 0.0545528
    outer loop
      vertex -9.56773 -6.10105 4.15823
      vertex -9.78148 -6.23735 0
      vertex -9.13545 -12.2021 0
    endloop
  endfacet
  facet normal -0.980261 -0.188651 0.0591583
    outer loop
      vertex -8.93582 -11.9355 4.15823
      vertex -9.13545 -12.2021 0
      vertex -8.09017 -17.6336 0
    endloop
  endfacet
  facet normal -0.796306 -0.596177 0.102323
    outer loop
      vertex -4.89074 -25.413 4.15823
      vertex -5 -25.9808 0
      vertex -3.02264 -27.9082 4.15823
    endloop
  endfacet
  facet normal -0.331486 -0.248176 0.910234
    outer loop
      vertex -1.75 -9.09327 18.6562
      vertex -2.5 -12.9904 17.3205
      vertex -1.75 -13.9921 17.3205
    endloop
  endfacet
  facet normal 0.34639 -0.0666645 0.935719
    outer loop
      vertex 1.75 -3.81435 19.4152
      vertex 2.82301 -3.77066 19.0211
      vertex 1.75 -2.72473 19.4929
    endloop
  endfacet
  facet normal 0.34639 -0.0666629 0.935719
    outer loop
      vertex 2.82301 -3.77066 19.0211
      vertex 1.75 -3.81435 19.4152
      vertex 2.5 -5.44907 19.0211
    endloop
  endfacet
  facet normal 0.608555 -0.117117 0.784821
    outer loop
      vertex 4.56773 -6.10105 17.3205
      vertex 2.82301 -3.77066 19.0211
      vertex 4.04508 -8.81678 17.3205
    endloop
  endfacet
  facet normal -0.875602 -0.16851 0.452687
    outer loop
      vertex -6.11281 -8.1648 14.8629
      vertex -6.54508 -14.2658 11.7557
      vertex -5.41338 -11.7992 14.8629
    endloop
  endfacet
  facet normal 0.624228 -0.286392 0.726856
    outer loop
      vertex 3.34565 -11.1472 17.3205
      vertex 2.5 -12.9904 17.3205
      vertex 3.34565 -17.3845 14.8629
    endloop
  endfacet
  facet normal 0.875602 -0.16851 0.452687
    outer loop
      vertex 6.11281 -8.1648 14.8629
      vertex 5.41338 -11.7992 14.8629
      vertex 6.54508 -14.2658 11.7557
    endloop
  endfacet
  facet normal 0.905953 -0.415645 0.0805545
    outer loop
      vertex 6.54508 -21.8072 4.15823
      vertex 5 -25.9808 0
      vertex 6.69131 -22.2943 0
    endloop
  endfacet
  facet normal 0.796306 -0.596177 0.102323
    outer loop
      vertex 4.89074 -25.413 4.15823
      vertex 3.02264 -27.9082 4.15823
      vertex 5 -25.9808 0
    endloop
  endfacet
  facet normal 0.431692 -0.676984 0.5961
    outer loop
      vertex 1.75 -25.0191 10.0996
      vertex 1.75 -26.7492 8.13473
      vertex 2.82301 -26.065 8.13473
    endloop
  endfacet
  facet normal -0.796306 -0.596177 0.102323
    outer loop
      vertex -3.02264 -27.9082 4.15823
      vertex -5 -25.9808 0
      vertex -3.09017 -28.5317 0
    endloop
  endfacet
  facet normal -0.532815 -0.835565 0.133936
    outer loop
      vertex -3.02264 -27.9082 4.15823
      vertex -1.75 -28.852 3.33333
      vertex -1.75 -28.7197 4.15823
    endloop
  endfacet
  facet normal -0.532815 -0.835565 0.133938
    outer loop
      vertex -1.75 -28.852 3.33333
      vertex -3.09017 -28.5317 0
      vertex -1.43263 -29.0543 3.33333
    endloop
  endfacet
  facet normal -0.532814 -0.835566 0.133938
    outer loop
      vertex -3.09017 -28.5317 0
      vertex -1.75 -28.852 3.33333
      vertex -3.02264 -27.9082 4.15823
    endloop
  endfacet
  facet normal 0.875602 -0.16851 0.452687
    outer loop
      vertex 7.39074 -9.87171 11.7557
      vertex 6.11281 -8.1648 14.8629
      vertex 6.54508 -14.2658 11.7557
    endloop
  endfacet
  facet normal 0.823433 -0.0288486 0.566679
    outer loop
      vertex 6.69131 0 14.8629
      vertex 5 0 17.3205
      vertex 6.54508 -4.1736 14.8629
    endloop
  endfacet
  facet normal 0.960225 -0.0336413 0.277193
    outer loop
      vertex 9.13545 0 8.13473
      vertex 8.09017 0 11.7557
      vertex 8.93582 -5.6981 8.13473
    endloop
  endfacet
  facet normal 0.980261 -0.188651 0.0591583
    outer loop
      vertex 8.93582 -11.9355 4.15823
      vertex 8.09017 -17.6336 0
      vertex 9.13545 -12.2021 0
    endloop
  endfacet
  facet normal 0.980302 -0.106173 0.166538
    outer loop
      vertex 8.93582 -5.6981 8.13473
      vertex 8.34565 -11.1472 8.13473
      vertex 9.56773 -6.10105 4.15823
    endloop
  endfacet
  facet normal 0.986469 -0.0345607 0.160262
    outer loop
      vertex 9.13545 0 8.13473
      vertex 8.93582 -5.6981 8.13473
      vertex 9.56773 -6.10105 4.15823
    endloop
  endfacet
  facet normal 0.830725 -0.381131 0.405753
    outer loop
      vertex 5.41338 -18.0365 11.7557
      vertex 4.04508 -21.0189 11.7557
      vertex 6.11281 -20.3669 8.13473
    endloop
  endfacet
  facet normal 0.898271 -0.269602 0.347023
    outer loop
      vertex 6.54508 -14.2658 11.7557
      vertex 5.41338 -18.0365 11.7557
      vertex 6.11281 -20.3669 8.13473
    endloop
  endfacet
  facet normal 0.823433 -0.0288486 0.566679
    outer loop
      vertex 5 0 17.3205
      vertex 4.89074 -3.11868 17.3205
      vertex 6.54508 -4.1736 14.8629
    endloop
  endfacet
  facet normal 0.823433 0.0288486 0.566679
    outer loop
      vertex 6.54508 4.1736 14.8629
      vertex 5 0 17.3205
      vertex 6.69131 0 14.8629
    endloop
  endfacet
  facet normal 0.808553 0.0875717 0.58187
    outer loop
      vertex 6.11281 8.1648 14.8629
      vertex 4.56773 6.10105 17.3205
      vertex 6.54508 4.1736 14.8629
    endloop
  endfacet
  facet normal 0.376289 0.0407549 0.925605
    outer loop
      vertex 1.75 2.33745 19.5204
      vertex 1.75 1.91215 19.5392
      vertex 2.82301 3.77066 19.0211
    endloop
  endfacet
  facet normal -0.762866 0.571142 0.303037
    outer loop
      vertex -3.02264 27.9082 4.15823
      vertex -4.56773 23.7346 8.13473
      vertex -2.82301 26.065 8.13473
    endloop
  endfacet
  facet normal 0.646736 0.0700459 0.75949
    outer loop
      vertex 4.56773 6.10105 17.3205
      vertex 2.82301 3.77066 19.0211
      vertex 3.02264 1.92745 19.0211
    endloop
  endfacet
  facet normal 0.608555 0.117116 0.784821
    outer loop
      vertex 4.56773 6.10105 17.3205
      vertex 2.5 5.44907 19.0211
      vertex 2.82301 3.77066 19.0211
    endloop
  endfacet
  facet normal 0.829576 0.248985 0.49981
    outer loop
      vertex 6.54508 14.2658 11.7557
      vertex 4.47736 14.9178 14.8629
      vertex 5.41338 11.7992 14.8629
    endloop
  endfacet
  facet normal 0.532815 0.835565 0.133936
    outer loop
      vertex 3.02264 27.9082 4.15823
      vertex 1.75 28.852 3.33333
      vertex 1.75 28.7197 4.15823
    endloop
  endfacet
  facet normal 0.532815 0.835565 0.133938
    outer loop
      vertex 1.75 28.852 3.33333
      vertex 3.09017 28.5317 0
      vertex 1.43263 29.0543 3.33333
    endloop
  endfacet
  facet normal 0.532814 0.835566 0.133938
    outer loop
      vertex 3.09017 28.5317 0
      vertex 1.75 28.852 3.33333
      vertex 3.02264 27.9082 4.15823
    endloop
  endfacet
  facet normal 0.830725 0.381131 0.405753
    outer loop
      vertex 4.56773 23.7346 8.13473
      vertex 4.04508 21.0189 11.7557
      vertex 6.11281 20.3669 8.13473
    endloop
  endfacet
  facet normal 0.965905 0.185889 0.180204
    outer loop
      vertex 8.93582 11.9355 4.15823
      vertex 7.39074 16.1091 8.13473
      vertex 8.34565 11.1472 8.13473
    endloop
  endfacet
  facet normal 0.980261 0.188651 0.0591583
    outer loop
      vertex 9.13545 12.2021 0
      vertex 8.09017 17.6336 0
      vertex 8.93582 11.9355 4.15823
    endloop
  endfacet
  facet normal 0.980261 0.188651 0.0591584
    outer loop
      vertex 8.09017 17.6336 0
      vertex 7.91338 17.2482 4.15823
      vertex 8.93582 11.9355 4.15823
    endloop
  endfacet
  facet normal -0.391191 -0.013706 0.920207
    outer loop
      vertex -1.75 -0.686928 19.5806
      vertex -3.02264 -1.92745 19.0211
      vertex -1.75 -1.11592 19.5742
    endloop
  endfacet
  facet normal -0.937677 0.281429 0.203864
    outer loop
      vertex -6.54508 21.8072 4.15823
      vertex -7.39074 16.1091 8.13473
      vertex -6.11281 20.3669 8.13473
    endloop
  endfacet
  facet normal -0.992705 0.107517 0.054553
    outer loop
      vertex -9.13545 12.2021 0
      vertex -9.56773 6.10105 4.15823
      vertex -8.93582 11.9355 4.15823
    endloop
  endfacet
  facet normal -0.986469 -0.0345606 0.160262
    outer loop
      vertex -9.13545 0 8.13473
      vertex -9.78148 0 4.15823
      vertex -9.56773 -6.10105 4.15823
    endloop
  endfacet
  facet normal -0.823433 -0.0288486 0.566679
    outer loop
      vertex -5 0 17.3205
      vertex -6.69131 0 14.8629
      vertex -6.54508 -4.1736 14.8629
    endloop
  endfacet
  facet normal -0.646737 0.0700458 0.75949
    outer loop
      vertex -4.56773 6.10105 17.3205
      vertex -4.89074 3.11868 17.3205
      vertex -3.02264 1.92745 19.0211
    endloop
  endfacet
  facet normal -0.376289 0.0407549 0.925605
    outer loop
      vertex -1.75 2.33745 19.5204
      vertex -2.82301 3.77066 19.0211
      vertex -1.75 1.91215 19.5392
    endloop
  endfacet
  facet normal -0.608555 0.117117 0.784821
    outer loop
      vertex -4.04508 8.81678 17.3205
      vertex -4.56773 6.10105 17.3205
      vertex -2.82301 3.77066 19.0211
    endloop
  endfacet
  facet normal -0.718276 0.21558 0.661517
    outer loop
      vertex -3.34565 11.1472 17.3205
      vertex -4.47736 14.9178 14.8629
      vertex -4.04508 8.81678 17.3205
    endloop
  endfacet
  facet normal -0.808553 0.0875717 0.58187
    outer loop
      vertex -6.11281 8.1648 14.8629
      vertex -6.54508 4.1736 14.8629
      vertex -4.56773 6.10105 17.3205
    endloop
  endfacet
  facet normal -0.301511 0.0904937 0.949159
    outer loop
      vertex -2.5 5.44907 19.0211
      vertex -1.75 5.57739 19.2471
      vertex -2.06773 6.88933 19.0211
    endloop
  endfacet
  facet normal -0.301511 0.0904931 0.949159
    outer loop
      vertex -1.75 5.57739 19.2471
      vertex -2.5 5.44907 19.0211
      vertex -1.75 3.81435 19.4152
    endloop
  endfacet
  facet normal -0.905952 -0.415646 0.080555
    outer loop
      vertex -4.89074 -25.413 4.15823
      vertex -6.54508 -21.8072 4.15823
      vertex -5 -25.9808 0
    endloop
  endfacet
  facet normal -0.955625 -0.286816 0.0672077
    outer loop
      vertex -7.91338 -17.2482 4.15823
      vertex -8.09017 -17.6336 0
      vertex -6.54508 -21.8072 4.15823
    endloop
  endfacet
  facet normal -0.93375 -0.1797 0.309545
    outer loop
      vertex -7.39074 -9.87171 11.7557
      vertex -8.34565 -11.1472 8.13473
      vertex -6.54508 -14.2658 11.7557
    endloop
  endfacet
  facet normal -0.992705 -0.107517 0.054553
    outer loop
      vertex -8.93582 -11.9355 4.15823
      vertex -9.56773 -6.10105 4.15823
      vertex -9.13545 -12.2021 0
    endloop
  endfacet
  facet normal 0.376289 -0.0407549 0.925605
    outer loop
      vertex 1.75 -1.91215 19.5392
      vertex 1.75 -2.33745 19.5204
      vertex 2.82301 -3.77066 19.0211
    endloop
  endfacet
  facet normal -0.762867 -0.571142 0.303037
    outer loop
      vertex -4.56773 -23.7346 8.13473
      vertex -4.89074 -25.413 4.15823
      vertex -3.02264 -27.9082 4.15823
    endloop
  endfacet
  facet normal -0.90044 -0.0975236 0.423907
    outer loop
      vertex -6.54508 -4.1736 14.8629
      vertex -7.39074 -9.87171 11.7557
      vertex -6.11281 -8.1648 14.8629
    endloop
  endfacet
  facet normal -0.830725 -0.381131 0.405753
    outer loop
      vertex -5.41338 -18.0365 11.7557
      vertex -6.11281 -20.3669 8.13473
      vertex -4.04508 -21.0189 11.7557
    endloop
  endfacet
  facet normal -0.829576 -0.248985 0.49981
    outer loop
      vertex -4.47736 -14.9178 14.8629
      vertex -6.54508 -14.2658 11.7557
      vertex -5.41338 -18.0365 11.7557
    endloop
  endfacet
  facet normal 0.646736 -0.0700459 0.75949
    outer loop
      vertex 3.02264 -1.92745 19.0211
      vertex 2.82301 -3.77066 19.0211
      vertex 4.56773 -6.10105 17.3205
    endloop
  endfacet
  facet normal 0.646737 -0.0700458 0.75949
    outer loop
      vertex 4.89074 -3.11868 17.3205
      vertex 3.02264 -1.92745 19.0211
      vertex 4.56773 -6.10105 17.3205
    endloop
  endfacet
  facet normal 0.718276 -0.21558 0.661517
    outer loop
      vertex 4.04508 -8.81678 17.3205
      vertex 3.34565 -11.1472 17.3205
      vertex 4.47736 -14.9178 14.8629
    endloop
  endfacet
  facet normal 0.796306 -0.596177 0.102323
    outer loop
      vertex 5 -25.9808 0
      vertex 3.02264 -27.9082 4.15823
      vertex 3.09017 -28.5317 0
    endloop
  endfacet
  facet normal 0.905952 -0.415646 0.080555
    outer loop
      vertex 6.54508 -21.8072 4.15823
      vertex 4.89074 -25.413 4.15823
      vertex 5 -25.9808 0
    endloop
  endfacet
  facet normal 0.955625 -0.286816 0.0672074
    outer loop
      vertex 8.09017 -17.6336 0
      vertex 6.54508 -21.8072 4.15823
      vertex 6.69131 -22.2943 0
    endloop
  endfacet
  facet normal 0.747283 -0.342849 0.569231
    outer loop
      vertex 4.47736 -14.9178 14.8629
      vertex 3.34565 -17.3845 14.8629
      vertex 4.04508 -21.0189 11.7557
    endloop
  endfacet
  facet normal -0.747283 -0.342849 0.56923
    outer loop
      vertex -4.47736 -14.9178 14.8629
      vertex -5.41338 -18.0365 11.7557
      vertex -4.04508 -21.0189 11.7557
    endloop
  endfacet
  facet normal 0.696946 -0.521789 0.491937
    outer loop
      vertex 4.04508 -21.0189 11.7557
      vertex 2.82301 -26.065 8.13473
      vertex 4.56773 -23.7346 8.13473
    endloop
  endfacet
  facet normal 0.351434 -0.551122 0.756809
    outer loop
      vertex 1.75 -20.4034 14.0551
      vertex 2.5 -23.0826 11.7557
      vertex 2.06773 -19.0914 14.8629
    endloop
  endfacet
  facet normal 0.351434 -0.551121 0.756809
    outer loop
      vertex 2.5 -23.0826 11.7557
      vertex 1.75 -20.4034 14.0551
      vertex 1.75 -23.5609 11.7557
    endloop
  endfacet
  facet normal -0.955625 -0.286816 0.0672074
    outer loop
      vertex -6.54508 -21.8072 4.15823
      vertex -8.09017 -17.6336 0
      vertex -6.69131 -22.2943 0
    endloop
  endfacet
  facet normal -0.905953 -0.415645 0.0805545
    outer loop
      vertex -6.54508 -21.8072 4.15823
      vertex -6.69131 -22.2943 0
      vertex -5 -25.9808 0
    endloop
  endfacet
  facet normal 0 -0.98793 0.1549
    outer loop
      vertex -1.04528 -29.8357 0
      vertex 1.02697 -29.313 3.33333
      vertex -1.02697 -29.313 3.33333
    endloop
  endfacet
  facet normal 0 -0.98793 0.1549
    outer loop
      vertex 1.02697 -29.313 3.33333
      vertex -1.04528 -29.8357 0
      vertex 1.04528 -29.8357 0
    endloop
  endfacet
  facet normal 0.93375 -0.1797 0.309545
    outer loop
      vertex 7.39074 -9.87171 11.7557
      vertex 6.54508 -14.2658 11.7557
      vertex 8.34565 -11.1472 8.13473
    endloop
  endfacet
  facet normal 0.808553 -0.0875717 0.58187
    outer loop
      vertex 6.54508 -4.1736 14.8629
      vertex 4.56773 -6.10105 17.3205
      vertex 6.11281 -8.1648 14.8629
    endloop
  endfacet
  facet normal 0.960225 0.0336413 0.277193
    outer loop
      vertex 8.93582 5.6981 8.13473
      vertex 8.09017 0 11.7557
      vertex 9.13545 0 8.13473
    endloop
  endfacet
  facet normal 0.986469 0.0345607 0.160262
    outer loop
      vertex 9.56773 6.10105 4.15823
      vertex 8.93582 5.6981 8.13473
      vertex 9.13545 0 8.13473
    endloop
  endfacet
  facet normal 0.986469 0.0345606 0.160262
    outer loop
      vertex 9.56773 6.10105 4.15823
      vertex 9.13545 0 8.13473
      vertex 9.78148 0 4.15823
    endloop
  endfacet
  facet normal 0.93375 -0.1797 0.309545
    outer loop
      vertex 8.34565 -11.1472 8.13473
      vertex 6.54508 -14.2658 11.7557
      vertex 7.39074 -16.1091 8.13473
    endloop
  endfacet
  facet normal 0.980261 -0.188651 0.0591584
    outer loop
      vertex 8.93582 -11.9355 4.15823
      vertex 7.91338 -17.2482 4.15823
      vertex 8.09017 -17.6336 0
    endloop
  endfacet
  facet normal 0.747283 -0.342849 0.56923
    outer loop
      vertex 4.47736 -14.9178 14.8629
      vertex 4.04508 -21.0189 11.7557
      vertex 5.41338 -18.0365 11.7557
    endloop
  endfacet
  facet normal 0.829576 -0.248985 0.49981
    outer loop
      vertex 6.54508 -14.2658 11.7557
      vertex 4.47736 -14.9178 14.8629
      vertex 5.41338 -18.0365 11.7557
    endloop
  endfacet
  facet normal 0.911387 -0.03193 0.410309
    outer loop
      vertex 6.69131 0 14.8629
      vertex 6.54508 -4.1736 14.8629
      vertex 8.09017 0 11.7557
    endloop
  endfacet
  facet normal 0.911387 0.03193 0.410309
    outer loop
      vertex 8.09017 0 11.7557
      vertex 6.54508 4.1736 14.8629
      vertex 6.69131 0 14.8629
    endloop
  endfacet
  facet normal 0.37629 0.0407547 0.925605
    outer loop
      vertex 1.75 1.91215 19.5392
      vertex 3.02264 1.92745 19.0211
      vertex 2.82301 3.77066 19.0211
    endloop
  endfacet
  facet normal 0.37629 0.0407535 0.925605
    outer loop
      vertex 3.02264 1.92745 19.0211
      vertex 1.75 1.91215 19.5392
      vertex 1.75 1.11592 19.5742
    endloop
  endfacet
  facet normal 0.391191 0.013706 0.920207
    outer loop
      vertex 1.75 1.11592 19.5742
      vertex 1.75 0.686928 19.5806
      vertex 3.02264 1.92745 19.0211
    endloop
  endfacet
  facet normal 0.301511 0.0904938 0.949159
    outer loop
      vertex 1.75 5.57739 19.2471
      vertex 2.5 5.44907 19.0211
      vertex 2.06773 6.88933 19.0211
    endloop
  endfacet
  facet normal 0.301511 0.0904941 0.949159
    outer loop
      vertex 2.5 5.44907 19.0211
      vertex 1.75 5.57739 19.2471
      vertex 1.75 3.81435 19.4152
    endloop
  endfacet
  facet normal 0.346391 0.066663 0.935719
    outer loop
      vertex 1.75 3.81435 19.4152
      vertex 2.82301 3.77066 19.0211
      vertex 2.5 5.44907 19.0211
    endloop
  endfacet
  facet normal 0.346391 0.0666629 0.935719
    outer loop
      vertex 2.82301 3.77066 19.0211
      vertex 1.75 3.81435 19.4152
      vertex 1.75 2.72473 19.4929
    endloop
  endfacet
  facet normal -0.90044 0.0975236 0.423907
    outer loop
      vertex -6.11281 8.1648 14.8629
      vertex -7.39074 9.87171 11.7557
      vertex -6.54508 4.1736 14.8629
    endloop
  endfacet
  facet normal 0.696946 0.521789 0.491937
    outer loop
      vertex 4.56773 23.7346 8.13473
      vertex 2.82301 26.065 8.13473
      vertex 4.04508 21.0189 11.7557
    endloop
  endfacet
  facet normal 0.718276 0.21558 0.661517
    outer loop
      vertex 4.47736 14.9178 14.8629
      vertex 4.04508 8.81678 17.3205
      vertex 5.41338 11.7992 14.8629
    endloop
  endfacet
  facet normal 0.546459 0.164011 0.821269
    outer loop
      vertex 4.04508 8.81678 17.3205
      vertex 2.06773 6.88933 19.0211
      vertex 2.5 5.44907 19.0211
    endloop
  endfacet
  facet normal 0.762867 0.571142 0.303037
    outer loop
      vertex 4.89074 25.413 4.15823
      vertex 3.02264 27.9082 4.15823
      vertex 4.56773 23.7346 8.13473
    endloop
  endfacet
  facet normal 0.796306 0.596177 0.102323
    outer loop
      vertex 3.09017 28.5317 0
      vertex 3.02264 27.9082 4.15823
      vertex 5 25.9808 0
    endloop
  endfacet
  facet normal 0.905953 0.415645 0.0805545
    outer loop
      vertex 6.69131 22.2943 0
      vertex 5 25.9808 0
      vertex 6.54508 21.8072 4.15823
    endloop
  endfacet
  facet normal 0.955625 0.286816 0.0672074
    outer loop
      vertex 6.69131 22.2943 0
      vertex 6.54508 21.8072 4.15823
      vertex 8.09017 17.6336 0
    endloop
  endfacet
  facet normal -0.955625 0.286816 0.0672074
    outer loop
      vertex -6.69131 22.2943 0
      vertex -8.09017 17.6336 0
      vertex -6.54508 21.8072 4.15823
    endloop
  endfacet
  facet normal -0.600594 0.449653 0.661135
    outer loop
      vertex -2.5 23.0826 11.7557
      vertex -4.04508 21.0189 11.7557
      vertex -2.06773 19.0914 14.8629
    endloop
  endfacet
  facet normal -0.965905 0.185889 0.180204
    outer loop
      vertex -7.39074 16.1091 8.13473
      vertex -8.93582 11.9355 4.15823
      vertex -8.34565 11.1472 8.13473
    endloop
  endfacet
  facet normal -0.960225 0.0336414 0.277193
    outer loop
      vertex -7.91338 5.04612 11.7557
      vertex -8.93582 5.6981 8.13473
      vertex -8.09017 0 11.7557
    endloop
  endfacet
  facet normal -0.965905 0.185888 0.180204
    outer loop
      vertex -7.91338 17.2482 4.15823
      vertex -8.93582 11.9355 4.15823
      vertex -7.39074 16.1091 8.13473
    endloop
  endfacet
  facet normal -0.980261 0.188651 0.0591584
    outer loop
      vertex -8.09017 17.6336 0
      vertex -8.93582 11.9355 4.15823
      vertex -7.91338 17.2482 4.15823
    endloop
  endfacet
  facet normal -0.391192 0.0137053 0.920207
    outer loop
      vertex -3.09017 0 19.0211
      vertex -1.75 0.686928 19.5806
      vertex -3.02264 1.92745 19.0211
    endloop
  endfacet
  facet normal -0.391192 0.0137054 0.920207
    outer loop
      vertex -1.75 0.686928 19.5806
      vertex -3.09017 0 19.0211
      vertex -1.75 0 19.5909
    endloop
  endfacet
  facet normal -0.823433 -0.0288486 0.566679
    outer loop
      vertex -5 0 17.3205
      vertex -6.54508 -4.1736 14.8629
      vertex -4.89074 -3.11868 17.3205
    endloop
  endfacet
  facet normal -0.911388 0.0319303 0.410308
    outer loop
      vertex -7.91338 5.04612 11.7557
      vertex -8.09017 0 11.7557
      vertex -6.54508 4.1736 14.8629
    endloop
  endfacet
  facet normal -0.823433 0.0288486 0.566679
    outer loop
      vertex -6.54508 4.1736 14.8629
      vertex -6.69131 0 14.8629
      vertex -5 0 17.3205
    endloop
  endfacet
  facet normal -0.829576 0.248985 0.49981
    outer loop
      vertex -4.47736 14.9178 14.8629
      vertex -6.54508 14.2658 11.7557
      vertex -5.41338 11.7992 14.8629
    endloop
  endfacet
  facet normal -0.664838 0.0232925 0.746625
    outer loop
      vertex -3.02264 1.92745 19.0211
      vertex -4.89074 3.11868 17.3205
      vertex -3.09017 0 19.0211
    endloop
  endfacet
  facet normal -0.391191 0.013706 0.920207
    outer loop
      vertex -1.75 1.11592 19.5742
      vertex -3.02264 1.92745 19.0211
      vertex -1.75 0.686928 19.5806
    endloop
  endfacet
  facet normal -0.664838 -0.0232923 0.746625
    outer loop
      vertex -3.09017 0 19.0211
      vertex -5 0 17.3205
      vertex -4.89074 -3.11868 17.3205
    endloop
  endfacet
  facet normal -0.264481 0.414764 0.870644
    outer loop
      vertex -1.75 19.294 14.8629
      vertex -2.06773 19.0914 14.8629
      vertex -1.75 16.1578 16.3569
    endloop
  endfacet
  facet normal 0 0.98793 0.1549
    outer loop
      vertex 1.04528 29.8357 0
      vertex -1.02697 29.313 3.33333
      vertex 1.02697 29.313 3.33333
    endloop
  endfacet
  facet normal 0 0.98793 0.1549
    outer loop
      vertex -1.02697 29.313 3.33333
      vertex 1.04528 29.8357 0
      vertex -1.04528 29.8357 0
    endloop
  endfacet
  facet normal -0.796306 0.596177 0.102323
    outer loop
      vertex -3.09017 28.5317 0
      vertex -4.89074 25.413 4.15823
      vertex -3.02264 27.9082 4.15823
    endloop
  endfacet
  facet normal -0.762867 0.571142 0.303037
    outer loop
      vertex -3.02264 27.9082 4.15823
      vertex -4.89074 25.413 4.15823
      vertex -4.56773 23.7346 8.13473
    endloop
  endfacet
  facet normal -0.980302 0.106173 0.166538
    outer loop
      vertex -8.93582 11.9355 4.15823
      vertex -9.56773 6.10105 4.15823
      vertex -8.34565 11.1472 8.13473
    endloop
  endfacet
  facet normal -0.986469 0.0345606 0.160262
    outer loop
      vertex -9.56773 6.10105 4.15823
      vertex -9.78148 0 4.15823
      vertex -9.13545 0 8.13473
    endloop
  endfacet
  facet normal -0.998011 -0.034965 0.0524478
    outer loop
      vertex -9.78148 0 4.15823
      vertex -10 0 0
      vertex -9.56773 -6.10105 4.15823
    endloop
  endfacet
  facet normal -0.998011 -0.0349652 0.0524474
    outer loop
      vertex -9.56773 -6.10105 4.15823
      vertex -10 0 0
      vertex -9.78148 -6.23735 0
    endloop
  endfacet
  facet normal -0.346391 -0.0666629 0.935719
    outer loop
      vertex -2.82301 -3.77066 19.0211
      vertex -1.75 -3.81435 19.4152
      vertex -1.75 -2.72473 19.4929
    endloop
  endfacet
  facet normal -0.346391 -0.066663 0.935719
    outer loop
      vertex -1.75 -3.81435 19.4152
      vertex -2.82301 -3.77066 19.0211
      vertex -2.5 -5.44907 19.0211
    endloop
  endfacet
  facet normal -0.937677 -0.281429 0.203864
    outer loop
      vertex -6.11281 -20.3669 8.13473
      vertex -7.39074 -16.1091 8.13473
      vertex -6.54508 -21.8072 4.15823
    endloop
  endfacet
  facet normal -0.875602 -0.16851 0.452687
    outer loop
      vertex -6.11281 -8.1648 14.8629
      vertex -7.39074 -9.87171 11.7557
      vertex -6.54508 -14.2658 11.7557
    endloop
  endfacet
  facet normal -0.600594 -0.449653 0.661135
    outer loop
      vertex -2.06773 -19.0914 14.8629
      vertex -4.04508 -21.0189 11.7557
      vertex -2.5 -23.0826 11.7557
    endloop
  endfacet
  facet normal -0.980302 -0.106173 0.166538
    outer loop
      vertex -8.93582 -5.6981 8.13473
      vertex -9.56773 -6.10105 4.15823
      vertex -8.34565 -11.1472 8.13473
    endloop
  endfacet
  facet normal -0.718276 -0.21558 0.661517
    outer loop
      vertex -4.04508 -8.81678 17.3205
      vertex -5.41338 -11.7992 14.8629
      vertex -4.47736 -14.9178 14.8629
    endloop
  endfacet
  facet normal -0.600595 -0.449652 0.661135
    outer loop
      vertex -3.34565 -17.3845 14.8629
      vertex -4.04508 -21.0189 11.7557
      vertex -2.06773 -19.0914 14.8629
    endloop
  endfacet
  facet normal 0.455441 -0.208954 0.865397
    outer loop
      vertex 1.75 -9.09327 18.6562
      vertex 3.34565 -11.1472 17.3205
      vertex 1.75 -8.38342 18.8276
    endloop
  endfacet
  facet normal 0.455441 -0.208954 0.865397
    outer loop
      vertex 3.34565 -11.1472 17.3205
      vertex 1.75 -9.09327 18.6562
      vertex 2.5 -12.9904 17.3205
    endloop
  endfacet
  facet normal 0.664838 -0.0232925 0.746625
    outer loop
      vertex 3.09017 0 19.0211
      vertex 3.02264 -1.92745 19.0211
      vertex 4.89074 -3.11868 17.3205
    endloop
  endfacet
  facet normal 0.391192 -0.0137054 0.920207
    outer loop
      vertex 1.75 -0.686928 19.5806
      vertex 3.09017 0 19.0211
      vertex 1.75 0 19.5909
    endloop
  endfacet
  facet normal 0.391192 -0.0137053 0.920207
    outer loop
      vertex 3.09017 0 19.0211
      vertex 1.75 -0.686928 19.5806
      vertex 3.02264 -1.92745 19.0211
    endloop
  endfacet
  facet normal 0.830725 -0.381131 0.405753
    outer loop
      vertex 6.11281 -20.3669 8.13473
      vertex 4.04508 -21.0189 11.7557
      vertex 4.56773 -23.7346 8.13473
    endloop
  endfacet
  facet normal 0.496097 -0.777985 0.385522
    outer loop
      vertex 1.75 -26.7492 8.13473
      vertex 1.75 -27.9235 5.76502
      vertex 2.82301 -26.065 8.13473
    endloop
  endfacet
  facet normal 0.624228 -0.286392 0.726855
    outer loop
      vertex 3.34565 -11.1472 17.3205
      vertex 3.34565 -17.3845 14.8629
      vertex 4.47736 -14.9178 14.8629
    endloop
  endfacet
  facet normal 0.351432 -0.551122 0.756809
    outer loop
      vertex 1.75 -19.294 14.8629
      vertex 1.75 -20.4034 14.0551
      vertex 2.06773 -19.0914 14.8629
    endloop
  endfacet
  facet normal 0.532817 -0.835564 0.133937
    outer loop
      vertex 1.04528 -29.8357 0
      vertex 1.43263 -29.0543 3.33333
      vertex 1.02697 -29.313 3.33333
    endloop
  endfacet
  facet normal 0.532814 -0.835566 0.133938
    outer loop
      vertex 1.43263 -29.0543 3.33333
      vertex 1.04528 -29.8357 0
      vertex 3.09017 -28.5317 0
    endloop
  endfacet
  facet normal -0.496097 -0.777985 0.385522
    outer loop
      vertex -1.75 -26.7492 8.13473
      vertex -2.82301 -26.065 8.13473
      vertex -1.75 -27.9235 5.76502
    endloop
  endfacet
  facet normal -0.431692 -0.676984 0.5961
    outer loop
      vertex -1.75 -25.0191 10.0996
      vertex -2.82301 -26.065 8.13473
      vertex -1.75 -26.7492 8.13473
    endloop
  endfacet
  facet normal -0.532814 -0.835566 0.133938
    outer loop
      vertex -1.04528 -29.8357 0
      vertex -1.43263 -29.0543 3.33333
      vertex -3.09017 -28.5317 0
    endloop
  endfacet
  facet normal -0.532817 -0.835564 0.133937
    outer loop
      vertex -1.43263 -29.0543 3.33333
      vertex -1.04528 -29.8357 0
      vertex -1.02697 -29.313 3.33333
    endloop
  endfacet
  facet normal 0.952228 0.103132 0.287447
    outer loop
      vertex 8.93582 5.6981 8.13473
      vertex 7.39074 9.87171 11.7557
      vertex 7.91338 5.04612 11.7557
    endloop
  endfacet
  facet normal 0.90044 0.0975236 0.423907
    outer loop
      vertex 7.39074 9.87171 11.7557
      vertex 6.54508 4.1736 14.8629
      vertex 7.91338 5.04612 11.7557
    endloop
  endfacet
  facet normal 0.998011 -0.0349652 0.0524474
    outer loop
      vertex 10 0 0
      vertex 9.56773 -6.10105 4.15823
      vertex 9.78148 -6.23735 0
    endloop
  endfacet
  facet normal 0.992705 -0.107516 0.0545528
    outer loop
      vertex 9.56773 -6.10105 4.15823
      vertex 9.13545 -12.2021 0
      vertex 9.78148 -6.23735 0
    endloop
  endfacet
  facet normal 0.965905 -0.185888 0.180204
    outer loop
      vertex 8.93582 -11.9355 4.15823
      vertex 7.39074 -16.1091 8.13473
      vertex 7.91338 -17.2482 4.15823
    endloop
  endfacet
  facet normal 0.965905 -0.185889 0.180204
    outer loop
      vertex 8.34565 -11.1472 8.13473
      vertex 7.39074 -16.1091 8.13473
      vertex 8.93582 -11.9355 4.15823
    endloop
  endfacet
  facet normal 0.952228 -0.103133 0.287447
    outer loop
      vertex 8.93582 -5.6981 8.13473
      vertex 7.39074 -9.87171 11.7557
      vertex 8.34565 -11.1472 8.13473
    endloop
  endfacet
  facet normal 0.90044 -0.0975236 0.423907
    outer loop
      vertex 7.91338 -5.04612 11.7557
      vertex 6.54508 -4.1736 14.8629
      vertex 7.39074 -9.87171 11.7557
    endloop
  endfacet
  facet normal 0.24217 -0.111106 0.963851
    outer loop
      vertex 1.75 -6.03108 19.1999
      vertex 1.75 -7.58186 19.0211
      vertex 2.06773 -6.88933 19.0211
    endloop
  endfacet
  facet normal 0.608555 -0.117117 0.784821
    outer loop
      vertex 2.82301 -3.77066 19.0211
      vertex 2.5 -5.44907 19.0211
      vertex 4.04508 -8.81678 17.3205
    endloop
  endfacet
  facet normal 0.242179 0.111102 0.963849
    outer loop
      vertex 1.75 6.03108 19.1999
      vertex 1.75 5.83072 19.223
      vertex 2.06773 6.88933 19.0211
    endloop
  endfacet
  facet normal 0.646737 0.0700458 0.75949
    outer loop
      vertex 4.56773 6.10105 17.3205
      vertex 3.02264 1.92745 19.0211
      vertex 4.89074 3.11868 17.3205
    endloop
  endfacet
  facet normal 0.808553 0.0875716 0.58187
    outer loop
      vertex 6.54508 4.1736 14.8629
      vertex 4.56773 6.10105 17.3205
      vertex 4.89074 3.11868 17.3205
    endloop
  endfacet
  facet normal 0.881802 0.404565 0.242389
    outer loop
      vertex 6.54508 21.8072 4.15823
      vertex 4.56773 23.7346 8.13473
      vertex 6.11281 20.3669 8.13473
    endloop
  endfacet
  facet normal 0.762866 0.571142 0.303037
    outer loop
      vertex 3.02264 27.9082 4.15823
      vertex 2.82301 26.065 8.13473
      vertex 4.56773 23.7346 8.13473
    endloop
  endfacet
  facet normal 0.937677 0.281429 0.203864
    outer loop
      vertex 6.54508 21.8072 4.15823
      vertex 6.11281 20.3669 8.13473
      vertex 7.39074 16.1091 8.13473
    endloop
  endfacet
  facet normal 0.937676 0.281429 0.203864
    outer loop
      vertex 7.91338 17.2482 4.15823
      vertex 6.54508 21.8072 4.15823
      vertex 7.39074 16.1091 8.13473
    endloop
  endfacet
  facet normal -0.905952 0.415646 0.0805548
    outer loop
      vertex -5 25.9808 0
      vertex -6.54508 21.8072 4.15823
      vertex -4.89074 25.413 4.15823
    endloop
  endfacet
  facet normal -0.796306 0.596177 0.102323
    outer loop
      vertex -3.09017 28.5317 0
      vertex -5 25.9808 0
      vertex -4.89074 25.413 4.15823
    endloop
  endfacet
  facet normal -0.90044 0.0975236 0.423907
    outer loop
      vertex -7.39074 9.87171 11.7557
      vertex -7.91338 5.04612 11.7557
      vertex -6.54508 4.1736 14.8629
    endloop
  endfacet
  facet normal -0.93375 0.1797 0.309545
    outer loop
      vertex -6.54508 14.2658 11.7557
      vertex -8.34565 11.1472 8.13473
      vertex -7.39074 9.87171 11.7557
    endloop
  endfacet
  facet normal -0.911387 0.03193 0.410309
    outer loop
      vertex -6.54508 4.1736 14.8629
      vertex -8.09017 0 11.7557
      vertex -6.69131 0 14.8629
    endloop
  endfacet
  facet normal -0.911387 -0.03193 0.410309
    outer loop
      vertex -6.69131 0 14.8629
      vertex -8.09017 0 11.7557
      vertex -6.54508 -4.1736 14.8629
    endloop
  endfacet
  facet normal -0.952228 0.103132 0.287447
    outer loop
      vertex -7.39074 9.87171 11.7557
      vertex -8.93582 5.6981 8.13473
      vertex -7.91338 5.04612 11.7557
    endloop
  endfacet
  facet normal -0.952228 0.103133 0.287447
    outer loop
      vertex -8.34565 11.1472 8.13473
      vertex -8.93582 5.6981 8.13473
      vertex -7.39074 9.87171 11.7557
    endloop
  endfacet
  facet normal 0.264481 0.414764 0.870644
    outer loop
      vertex 1.75 19.294 14.8629
      vertex 1.75 16.1578 16.3569
      vertex 2.06773 19.0914 14.8629
    endloop
  endfacet
  facet normal -0.301506 0.0904952 0.94916
    outer loop
      vertex -1.75 5.83072 19.223
      vertex -2.06773 6.88933 19.0211
      vertex -1.75 5.57739 19.2471
    endloop
  endfacet
  facet normal -0.455441 0.208954 0.865397
    outer loop
      vertex -3.34565 11.1472 17.3205
      vertex -1.75 9.09327 18.6562
      vertex -2.5 12.9904 17.3205
    endloop
  endfacet
  facet normal -0.455441 0.208954 0.865397
    outer loop
      vertex -1.75 9.09327 18.6562
      vertex -3.34565 11.1472 17.3205
      vertex -1.75 8.38342 18.8276
    endloop
  endfacet
  facet normal 0.455442 0.208954 0.865397
    outer loop
      vertex 1.75 9.09327 18.6562
      vertex 3.34565 11.1472 17.3205
      vertex 2.5 12.9904 17.3205
    endloop
  endfacet
  facet normal 0.455441 0.208955 0.865397
    outer loop
      vertex 3.34565 11.1472 17.3205
      vertex 1.75 9.09327 18.6562
      vertex 1.75 8.38342 18.8276
    endloop
  endfacet
  facet normal -0.664838 -0.0232925 0.746625
    outer loop
      vertex -3.09017 0 19.0211
      vertex -4.89074 -3.11868 17.3205
      vertex -3.02264 -1.92745 19.0211
    endloop
  endfacet
  facet normal -0.391192 -0.0137054 0.920207
    outer loop
      vertex -3.09017 0 19.0211
      vertex -1.75 -0.686928 19.5806
      vertex -1.75 0 19.5909
    endloop
  endfacet
  facet normal -0.391192 -0.0137053 0.920207
    outer loop
      vertex -1.75 -0.686928 19.5806
      vertex -3.09017 0 19.0211
      vertex -3.02264 -1.92745 19.0211
    endloop
  endfacet
  facet normal -0.34639 0.0666629 0.935719
    outer loop
      vertex -2.82301 3.77066 19.0211
      vertex -1.75 3.81435 19.4152
      vertex -2.5 5.44907 19.0211
    endloop
  endfacet
  facet normal -0.34639 0.0666645 0.935719
    outer loop
      vertex -1.75 3.81435 19.4152
      vertex -2.82301 3.77066 19.0211
      vertex -1.75 2.72473 19.4929
    endloop
  endfacet
  facet normal -0.346393 0.0666608 0.935718
    outer loop
      vertex -1.75 2.72473 19.4929
      vertex -2.82301 3.77066 19.0211
      vertex -1.75 2.33745 19.5204
    endloop
  endfacet
  facet normal -0.718276 0.21558 0.661517
    outer loop
      vertex -4.47736 14.9178 14.8629
      vertex -5.41338 11.7992 14.8629
      vertex -4.04508 8.81678 17.3205
    endloop
  endfacet
  facet normal -0.875602 0.16851 0.452687
    outer loop
      vertex -5.41338 11.7992 14.8629
      vertex -6.54508 14.2658 11.7557
      vertex -6.11281 8.1648 14.8629
    endloop
  endfacet
  facet normal -0.351432 0.551122 0.756809
    outer loop
      vertex -1.75 20.4034 14.0551
      vertex -2.06773 19.0914 14.8629
      vertex -1.75 19.294 14.8629
    endloop
  endfacet
  facet normal -0.546459 0.164011 0.821269
    outer loop
      vertex -3.34565 11.1472 17.3205
      vertex -4.04508 8.81678 17.3205
      vertex -2.06773 6.88933 19.0211
    endloop
  endfacet
  facet normal -0.431692 0.676984 0.5961
    outer loop
      vertex -1.75 26.7492 8.13473
      vertex -2.82301 26.065 8.13473
      vertex -1.75 25.0191 10.0996
    endloop
  endfacet
  facet normal -0.881802 0.404566 0.242389
    outer loop
      vertex -4.89074 25.413 4.15823
      vertex -6.54508 21.8072 4.15823
      vertex -4.56773 23.7346 8.13473
    endloop
  endfacet
  facet normal -0.881802 0.404565 0.242389
    outer loop
      vertex -4.56773 23.7346 8.13473
      vertex -6.54508 21.8072 4.15823
      vertex -6.11281 20.3669 8.13473
    endloop
  endfacet
  facet normal -0.496097 0.777985 0.385522
    outer loop
      vertex -3.02264 27.9082 4.15823
      vertex -1.75 27.9235 5.76502
      vertex -1.75 28.7197 4.15823
    endloop
  endfacet
  facet normal -0.496097 0.777985 0.385521
    outer loop
      vertex -1.75 27.9235 5.76502
      vertex -3.02264 27.9082 4.15823
      vertex -2.82301 26.065 8.13473
    endloop
  endfacet
  facet normal -0.532815 0.835565 0.133938
    outer loop
      vertex -1.43263 29.0543 3.33333
      vertex -3.09017 28.5317 0
      vertex -1.75 28.852 3.33333
    endloop
  endfacet
  facet normal -0.532815 0.835565 0.133936
    outer loop
      vertex -1.75 28.852 3.33333
      vertex -3.02264 27.9082 4.15823
      vertex -1.75 28.7197 4.15823
    endloop
  endfacet
  facet normal -0.532814 0.835566 0.133938
    outer loop
      vertex -3.02264 27.9082 4.15823
      vertex -1.75 28.852 3.33333
      vertex -3.09017 28.5317 0
    endloop
  endfacet
  facet normal -0.24217 -0.111106 0.963851
    outer loop
      vertex -1.75 -6.03108 19.1999
      vertex -2.06773 -6.88933 19.0211
      vertex -1.75 -7.58186 19.0211
    endloop
  endfacet
  facet normal -0.608555 -0.117117 0.784821
    outer loop
      vertex -2.5 -5.44907 19.0211
      vertex -4.56773 -6.10105 17.3205
      vertex -4.04508 -8.81678 17.3205
    endloop
  endfacet
  facet normal -0.775774 -0.149298 0.613095
    outer loop
      vertex -4.04508 -8.81678 17.3205
      vertex -6.11281 -8.1648 14.8629
      vertex -5.41338 -11.7992 14.8629
    endloop
  endfacet
  facet normal -0.980302 -0.106173 0.166538
    outer loop
      vertex -8.34565 -11.1472 8.13473
      vertex -9.56773 -6.10105 4.15823
      vertex -8.93582 -11.9355 4.15823
    endloop
  endfacet
  facet normal -0.898271 -0.269602 0.347022
    outer loop
      vertex -6.54508 -14.2658 11.7557
      vertex -7.39074 -16.1091 8.13473
      vertex -6.11281 -20.3669 8.13473
    endloop
  endfacet
  facet normal -0.898271 -0.269602 0.347023
    outer loop
      vertex -5.41338 -18.0365 11.7557
      vertex -6.54508 -14.2658 11.7557
      vertex -6.11281 -20.3669 8.13473
    endloop
  endfacet
  facet normal -0.881802 -0.404565 0.242389
    outer loop
      vertex -6.11281 -20.3669 8.13473
      vertex -6.54508 -21.8072 4.15823
      vertex -4.56773 -23.7346 8.13473
    endloop
  endfacet
  facet normal -0.808553 -0.0875717 0.58187
    outer loop
      vertex -4.56773 -6.10105 17.3205
      vertex -6.54508 -4.1736 14.8629
      vertex -6.11281 -8.1648 14.8629
    endloop
  endfacet
  facet normal -0.775774 -0.149298 0.613095
    outer loop
      vertex -4.56773 -6.10105 17.3205
      vertex -6.11281 -8.1648 14.8629
      vertex -4.04508 -8.81678 17.3205
    endloop
  endfacet
  facet normal 0.331486 -0.248176 0.910234
    outer loop
      vertex 1.75 -9.09327 18.6562
      vertex 1.75 -13.9921 17.3205
      vertex 2.5 -12.9904 17.3205
    endloop
  endfacet
  facet normal 0.37629 -0.0407535 0.925605
    outer loop
      vertex 1.75 -1.91215 19.5392
      vertex 3.02264 -1.92745 19.0211
      vertex 1.75 -1.11592 19.5742
    endloop
  endfacet
  facet normal 0.37629 -0.0407547 0.925605
    outer loop
      vertex 3.02264 -1.92745 19.0211
      vertex 1.75 -1.91215 19.5392
      vertex 2.82301 -3.77066 19.0211
    endloop
  endfacet
  facet normal 0.391191 -0.013706 0.920207
    outer loop
      vertex 1.75 -0.686928 19.5806
      vertex 1.75 -1.11592 19.5742
      vertex 3.02264 -1.92745 19.0211
    endloop
  endfacet
  facet normal 0.496097 -0.777985 0.385522
    outer loop
      vertex 3.02264 -27.9082 4.15823
      vertex 1.75 -27.9235 5.76502
      vertex 1.75 -28.7197 4.15823
    endloop
  endfacet
  facet normal 0.496097 -0.777985 0.385521
    outer loop
      vertex 1.75 -27.9235 5.76502
      vertex 3.02264 -27.9082 4.15823
      vertex 2.82301 -26.065 8.13473
    endloop
  endfacet
  facet normal 0.532815 -0.835565 0.133936
    outer loop
      vertex 1.75 -28.852 3.33333
      vertex 3.02264 -27.9082 4.15823
      vertex 1.75 -28.7197 4.15823
    endloop
  endfacet
  facet normal 0.532814 -0.835566 0.133938
    outer loop
      vertex 3.02264 -27.9082 4.15823
      vertex 1.75 -28.852 3.33333
      vertex 3.09017 -28.5317 0
    endloop
  endfacet
  facet normal 0.532815 -0.835565 0.133938
    outer loop
      vertex 1.43263 -29.0543 3.33333
      vertex 3.09017 -28.5317 0
      vertex 1.75 -28.852 3.33333
    endloop
  endfacet
  facet normal 0.762867 -0.571142 0.303037
    outer loop
      vertex 4.56773 -23.7346 8.13473
      vertex 3.02264 -27.9082 4.15823
      vertex 4.89074 -25.413 4.15823
    endloop
  endfacet
  facet normal 0.881802 -0.404566 0.242389
    outer loop
      vertex 6.54508 -21.8072 4.15823
      vertex 4.56773 -23.7346 8.13473
      vertex 4.89074 -25.413 4.15823
    endloop
  endfacet
  facet normal 0.477164 -0.357242 0.802928
    outer loop
      vertex 1.75 -16.1578 16.3569
      vertex 3.34565 -17.3845 14.8629
      vertex 1.75 -14.6208 17.0408
    endloop
  endfacet
  facet normal 0.477163 -0.357242 0.802928
    outer loop
      vertex 3.34565 -17.3845 14.8629
      vertex 1.75 -16.1578 16.3569
      vertex 2.06773 -19.0914 14.8629
    endloop
  endfacet
  facet normal 0.600595 -0.449652 0.661135
    outer loop
      vertex 3.34565 -17.3845 14.8629
      vertex 2.06773 -19.0914 14.8629
      vertex 4.04508 -21.0189 11.7557
    endloop
  endfacet
  facet normal 0.998011 -0.034965 0.0524478
    outer loop
      vertex 9.78148 0 4.15823
      vertex 9.56773 -6.10105 4.15823
      vertex 10 0 0
    endloop
  endfacet
  facet normal 0.998011 0.034965 0.0524478
    outer loop
      vertex 10 0 0
      vertex 9.56773 6.10105 4.15823
      vertex 9.78148 0 4.15823
    endloop
  endfacet
  facet normal 0.898271 -0.269602 0.347022
    outer loop
      vertex 6.54508 -14.2658 11.7557
      vertex 6.11281 -20.3669 8.13473
      vertex 7.39074 -16.1091 8.13473
    endloop
  endfacet
  facet normal 0.937677 -0.281429 0.203864
    outer loop
      vertex 7.39074 -16.1091 8.13473
      vertex 6.11281 -20.3669 8.13473
      vertex 6.54508 -21.8072 4.15823
    endloop
  endfacet
  facet normal 0.952228 -0.103132 0.287447
    outer loop
      vertex 7.91338 -5.04612 11.7557
      vertex 7.39074 -9.87171 11.7557
      vertex 8.93582 -5.6981 8.13473
    endloop
  endfacet
  facet normal 0.960225 -0.0336414 0.277193
    outer loop
      vertex 8.09017 0 11.7557
      vertex 7.91338 -5.04612 11.7557
      vertex 8.93582 -5.6981 8.13473
    endloop
  endfacet
  facet normal 0.301506 0.0904952 0.94916
    outer loop
      vertex 1.75 5.83072 19.223
      vertex 1.75 5.57739 19.2471
      vertex 2.06773 6.88933 19.0211
    endloop
  endfacet
  facet normal 0.718276 0.21558 0.661517
    outer loop
      vertex 4.47736 14.9178 14.8629
      vertex 3.34565 11.1472 17.3205
      vertex 4.04508 8.81678 17.3205
    endloop
  endfacet
  facet normal 0.546459 0.164011 0.821269
    outer loop
      vertex 3.34565 11.1472 17.3205
      vertex 2.06773 6.88933 19.0211
      vertex 4.04508 8.81678 17.3205
    endloop
  endfacet
  facet normal 0.881802 0.404566 0.242389
    outer loop
      vertex 4.89074 25.413 4.15823
      vertex 4.56773 23.7346 8.13473
      vertex 6.54508 21.8072 4.15823
    endloop
  endfacet
  facet normal 0.905952 0.415646 0.080555
    outer loop
      vertex 5 25.9808 0
      vertex 4.89074 25.413 4.15823
      vertex 6.54508 21.8072 4.15823
    endloop
  endfacet
  facet normal -0.986469 0.0345607 0.160262
    outer loop
      vertex -8.93582 5.6981 8.13473
      vertex -9.56773 6.10105 4.15823
      vertex -9.13545 0 8.13473
    endloop
  endfacet
  facet normal -0.960225 0.0336413 0.277193
    outer loop
      vertex -8.93582 5.6981 8.13473
      vertex -9.13545 0 8.13473
      vertex -8.09017 0 11.7557
    endloop
  endfacet
  facet normal -0.696946 0.521789 0.491937
    outer loop
      vertex -2.82301 26.065 8.13473
      vertex -4.56773 23.7346 8.13473
      vertex -4.04508 21.0189 11.7557
    endloop
  endfacet
  facet normal -0.830725 0.381131 0.405753
    outer loop
      vertex -4.56773 23.7346 8.13473
      vertex -6.11281 20.3669 8.13473
      vertex -4.04508 21.0189 11.7557
    endloop
  endfacet
  facet normal 0.696946 0.521789 0.491937
    outer loop
      vertex 2.82301 26.065 8.13473
      vertex 2.5 23.0826 11.7557
      vertex 4.04508 21.0189 11.7557
    endloop
  endfacet
  facet normal -0.546459 0.164011 0.821269
    outer loop
      vertex -2.06773 6.88933 19.0211
      vertex -4.04508 8.81678 17.3205
      vertex -2.5 5.44907 19.0211
    endloop
  endfacet
  facet normal -0.608555 0.117117 0.784821
    outer loop
      vertex -2.5 5.44907 19.0211
      vertex -4.04508 8.81678 17.3205
      vertex -2.82301 3.77066 19.0211
    endloop
  endfacet
  facet normal -0.242179 0.111102 0.963849
    outer loop
      vertex -1.75 6.03108 19.1999
      vertex -2.06773 6.88933 19.0211
      vertex -1.75 5.83072 19.223
    endloop
  endfacet
  facet normal 0.600594 0.449653 0.661135
    outer loop
      vertex 2.5 23.0826 11.7557
      vertex 2.06773 19.0914 14.8629
      vertex 4.04508 21.0189 11.7557
    endloop
  endfacet
  facet normal -0.37629 0.0407547 0.925605
    outer loop
      vertex -3.02264 1.92745 19.0211
      vertex -1.75 1.91215 19.5392
      vertex -2.82301 3.77066 19.0211
    endloop
  endfacet
  facet normal -0.37629 0.0407535 0.925605
    outer loop
      vertex -1.75 1.91215 19.5392
      vertex -3.02264 1.92745 19.0211
      vertex -1.75 1.11592 19.5742
    endloop
  endfacet
  facet normal -0.646736 0.0700459 0.75949
    outer loop
      vertex -2.82301 3.77066 19.0211
      vertex -4.56773 6.10105 17.3205
      vertex -3.02264 1.92745 19.0211
    endloop
  endfacet
  facet normal -0.455442 0.208954 0.865397
    outer loop
      vertex -1.75 8.38342 18.8276
      vertex -2.06773 6.88933 19.0211
      vertex -1.75 7.58186 19.0211
    endloop
  endfacet
  facet normal -0.455442 0.208954 0.865396
    outer loop
      vertex -2.06773 6.88933 19.0211
      vertex -1.75 8.38342 18.8276
      vertex -3.34565 11.1472 17.3205
    endloop
  endfacet
  facet normal -0.331486 0.248176 0.910234
    outer loop
      vertex -1.75 13.9921 17.3205
      vertex -2.5 12.9904 17.3205
      vertex -1.75 9.09327 18.6562
    endloop
  endfacet
  facet normal -0.37629 -0.0407535 0.925605
    outer loop
      vertex -3.02264 -1.92745 19.0211
      vertex -1.75 -1.91215 19.5392
      vertex -1.75 -1.11592 19.5742
    endloop
  endfacet
  facet normal -0.37629 -0.0407547 0.925605
    outer loop
      vertex -1.75 -1.91215 19.5392
      vertex -3.02264 -1.92745 19.0211
      vertex -2.82301 -3.77066 19.0211
    endloop
  endfacet
  facet normal -0.546459 -0.164011 0.821269
    outer loop
      vertex -2.5 -5.44907 19.0211
      vertex -4.04508 -8.81678 17.3205
      vertex -2.06773 -6.88933 19.0211
    endloop
  endfacet
  facet normal -0.477163 -0.357242 0.802928
    outer loop
      vertex -2.5 -12.9904 17.3205
      vertex -3.34565 -17.3845 14.8629
      vertex -2.06773 -19.0914 14.8629
    endloop
  endfacet
  facet normal -0.477163 -0.357242 0.802929
    outer loop
      vertex -2.5 -12.9904 17.3205
      vertex -1.75 -16.1578 16.3569
      vertex -1.75 -13.9921 17.3205
    endloop
  endfacet
  facet normal -0.477164 -0.357242 0.802928
    outer loop
      vertex -1.75 -16.1578 16.3569
      vertex -2.5 -12.9904 17.3205
      vertex -2.06773 -19.0914 14.8629
    endloop
  endfacet
  facet normal -0.455441 -0.208955 0.865397
    outer loop
      vertex -3.34565 -11.1472 17.3205
      vertex -1.75 -9.09327 18.6562
      vertex -1.75 -8.38342 18.8276
    endloop
  endfacet
  facet normal -0.455442 -0.208954 0.865397
    outer loop
      vertex -1.75 -9.09327 18.6562
      vertex -3.34565 -11.1472 17.3205
      vertex -2.5 -12.9904 17.3205
    endloop
  endfacet
  facet normal -0.455442 -0.208954 0.865397
    outer loop
      vertex -2.06773 -6.88933 19.0211
      vertex -1.75 -8.38342 18.8276
      vertex -1.75 -7.58186 19.0211
    endloop
  endfacet
  facet normal -0.455442 -0.208954 0.865396
    outer loop
      vertex -1.75 -8.38342 18.8276
      vertex -2.06773 -6.88933 19.0211
      vertex -3.34565 -11.1472 17.3205
    endloop
  endfacet
  facet normal -0.965905 -0.185889 0.180204
    outer loop
      vertex -8.34565 -11.1472 8.13473
      vertex -8.93582 -11.9355 4.15823
      vertex -7.39074 -16.1091 8.13473
    endloop
  endfacet
  facet normal -0.965905 -0.185888 0.180204
    outer loop
      vertex -7.39074 -16.1091 8.13473
      vertex -8.93582 -11.9355 4.15823
      vertex -7.91338 -17.2482 4.15823
    endloop
  endfacet
  facet normal -0.762866 -0.571142 0.303037
    outer loop
      vertex -2.82301 -26.065 8.13473
      vertex -4.56773 -23.7346 8.13473
      vertex -3.02264 -27.9082 4.15823
    endloop
  endfacet
  facet normal -0.496097 -0.777985 0.385521
    outer loop
      vertex -3.02264 -27.9082 4.15823
      vertex -1.75 -27.9235 5.76502
      vertex -2.82301 -26.065 8.13473
    endloop
  endfacet
  facet normal -0.496097 -0.777985 0.385522
    outer loop
      vertex -1.75 -27.9235 5.76502
      vertex -3.02264 -27.9082 4.15823
      vertex -1.75 -28.7197 4.15823
    endloop
  endfacet
  facet normal -0.830725 -0.381131 0.405753
    outer loop
      vertex -4.04508 -21.0189 11.7557
      vertex -6.11281 -20.3669 8.13473
      vertex -4.56773 -23.7346 8.13473
    endloop
  endfacet
  facet normal -0.696946 -0.521789 0.491937
    outer loop
      vertex -4.04508 -21.0189 11.7557
      vertex -4.56773 -23.7346 8.13473
      vertex -2.82301 -26.065 8.13473
    endloop
  endfacet
  facet normal -0.646737 -0.0700458 0.75949
    outer loop
      vertex -3.02264 -1.92745 19.0211
      vertex -4.89074 -3.11868 17.3205
      vertex -4.56773 -6.10105 17.3205
    endloop
  endfacet
  facet normal -0.808553 -0.0875716 0.58187
    outer loop
      vertex -4.89074 -3.11868 17.3205
      vertex -6.54508 -4.1736 14.8629
      vertex -4.56773 -6.10105 17.3205
    endloop
  endfacet
  facet normal 0.264481 -0.414764 0.870644
    outer loop
      vertex 1.75 -16.1578 16.3569
      vertex 1.75 -19.294 14.8629
      vertex 2.06773 -19.0914 14.8629
    endloop
  endfacet
  facet normal 0.455442 -0.208954 0.865397
    outer loop
      vertex 1.75 -8.38342 18.8276
      vertex 2.06773 -6.88933 19.0211
      vertex 1.75 -7.58186 19.0211
    endloop
  endfacet
  facet normal 0.455442 -0.208954 0.865396
    outer loop
      vertex 2.06773 -6.88933 19.0211
      vertex 1.75 -8.38342 18.8276
      vertex 3.34565 -11.1472 17.3205
    endloop
  endfacet
  facet normal 0.546459 -0.164011 0.821269
    outer loop
      vertex 4.04508 -8.81678 17.3205
      vertex 2.06773 -6.88933 19.0211
      vertex 3.34565 -11.1472 17.3205
    endloop
  endfacet
  facet normal 0.301506 -0.0904952 0.94916
    outer loop
      vertex 1.75 -5.57739 19.2471
      vertex 1.75 -5.83072 19.223
      vertex 2.06773 -6.88933 19.0211
    endloop
  endfacet
  facet normal 0.346393 -0.0666608 0.935718
    outer loop
      vertex 1.75 -2.33745 19.5204
      vertex 1.75 -2.72473 19.4929
      vertex 2.82301 -3.77066 19.0211
    endloop
  endfacet
  facet normal -0.747283 0.342849 0.56923
    outer loop
      vertex -4.04508 21.0189 11.7557
      vertex -5.41338 18.0365 11.7557
      vertex -4.47736 14.9178 14.8629
    endloop
  endfacet
  facet normal -0.829576 0.248985 0.49981
    outer loop
      vertex -5.41338 18.0365 11.7557
      vertex -6.54508 14.2658 11.7557
      vertex -4.47736 14.9178 14.8629
    endloop
  endfacet
  facet normal -0.624228 0.286392 0.726855
    outer loop
      vertex -3.34565 17.3845 14.8629
      vertex -4.47736 14.9178 14.8629
      vertex -3.34565 11.1472 17.3205
    endloop
  endfacet
  facet normal -0.747283 0.342849 0.569231
    outer loop
      vertex -4.04508 21.0189 11.7557
      vertex -4.47736 14.9178 14.8629
      vertex -3.34565 17.3845 14.8629
    endloop
  endfacet
  facet normal 0.431693 0.676984 0.596099
    outer loop
      vertex 2.5 23.0826 11.7557
      vertex 1.75 25.0191 10.0996
      vertex 1.75 23.5609 11.7557
    endloop
  endfacet
  facet normal 0.431692 0.676984 0.5961
    outer loop
      vertex 1.75 25.0191 10.0996
      vertex 2.5 23.0826 11.7557
      vertex 2.82301 26.065 8.13473
    endloop
  endfacet
  facet normal 0.431692 0.676984 0.5961
    outer loop
      vertex 1.75 26.7492 8.13473
      vertex 1.75 25.0191 10.0996
      vertex 2.82301 26.065 8.13473
    endloop
  endfacet
  facet normal 0.331486 0.248176 0.910234
    outer loop
      vertex 1.75 13.9921 17.3205
      vertex 1.75 9.09327 18.6562
      vertex 2.5 12.9904 17.3205
    endloop
  endfacet
  facet normal -0.24217 0.111106 0.963851
    outer loop
      vertex -1.75 7.58186 19.0211
      vertex -2.06773 6.88933 19.0211
      vertex -1.75 6.03108 19.1999
    endloop
  endfacet
  facet normal -0.775774 0.149298 0.613095
    outer loop
      vertex -5.41338 11.7992 14.8629
      vertex -6.11281 8.1648 14.8629
      vertex -4.04508 8.81678 17.3205
    endloop
  endfacet
  facet normal -0.775774 0.149298 0.613095
    outer loop
      vertex -4.04508 8.81678 17.3205
      vertex -6.11281 8.1648 14.8629
      vertex -4.56773 6.10105 17.3205
    endloop
  endfacet
  facet normal 0.477164 0.357242 0.802928
    outer loop
      vertex 1.75 16.1578 16.3569
      vertex 2.5 12.9904 17.3205
      vertex 2.06773 19.0914 14.8629
    endloop
  endfacet
  facet normal 0.477163 0.357242 0.802929
    outer loop
      vertex 2.5 12.9904 17.3205
      vertex 1.75 16.1578 16.3569
      vertex 1.75 13.9921 17.3205
    endloop
  endfacet
  facet normal -0.301511 -0.0904941 0.949159
    outer loop
      vertex -2.5 -5.44907 19.0211
      vertex -1.75 -5.57739 19.2471
      vertex -1.75 -3.81435 19.4152
    endloop
  endfacet
  facet normal -0.301511 -0.0904938 0.949159
    outer loop
      vertex -1.75 -5.57739 19.2471
      vertex -2.5 -5.44907 19.0211
      vertex -2.06773 -6.88933 19.0211
    endloop
  endfacet
  facet normal -0.546459 -0.164011 0.821269
    outer loop
      vertex -2.06773 -6.88933 19.0211
      vertex -4.04508 -8.81678 17.3205
      vertex -3.34565 -11.1472 17.3205
    endloop
  endfacet
  facet normal -0.718276 -0.21558 0.661517
    outer loop
      vertex -4.04508 -8.81678 17.3205
      vertex -4.47736 -14.9178 14.8629
      vertex -3.34565 -11.1472 17.3205
    endloop
  endfacet
  facet normal -0.431692 -0.676984 0.596099
    outer loop
      vertex -2.5 -23.0826 11.7557
      vertex -1.75 -25.0191 10.0996
      vertex -1.75 -23.5609 11.7557
    endloop
  endfacet
  facet normal -0.431692 -0.676984 0.5961
    outer loop
      vertex -1.75 -25.0191 10.0996
      vertex -2.5 -23.0826 11.7557
      vertex -2.82301 -26.065 8.13473
    endloop
  endfacet
  facet normal -0.696946 -0.521789 0.491937
    outer loop
      vertex -2.5 -23.0826 11.7557
      vertex -4.04508 -21.0189 11.7557
      vertex -2.82301 -26.065 8.13473
    endloop
  endfacet
  facet normal -0.747283 -0.342849 0.569231
    outer loop
      vertex -3.34565 -17.3845 14.8629
      vertex -4.47736 -14.9178 14.8629
      vertex -4.04508 -21.0189 11.7557
    endloop
  endfacet
  facet normal 0.301511 -0.0904931 0.949159
    outer loop
      vertex 1.75 -5.57739 19.2471
      vertex 2.5 -5.44907 19.0211
      vertex 1.75 -3.81435 19.4152
    endloop
  endfacet
  facet normal 0.301511 -0.0904937 0.949159
    outer loop
      vertex 2.5 -5.44907 19.0211
      vertex 1.75 -5.57739 19.2471
      vertex 2.06773 -6.88933 19.0211
    endloop
  endfacet
  facet normal 0.546459 -0.164011 0.821269
    outer loop
      vertex 2.5 -5.44907 19.0211
      vertex 2.06773 -6.88933 19.0211
      vertex 4.04508 -8.81678 17.3205
    endloop
  endfacet
  facet normal 0.242179 -0.111102 0.963849
    outer loop
      vertex 1.75 -5.83072 19.223
      vertex 1.75 -6.03108 19.1999
      vertex 2.06773 -6.88933 19.0211
    endloop
  endfacet
  facet normal -0.624228 0.286392 0.726856
    outer loop
      vertex -3.34565 17.3845 14.8629
      vertex -3.34565 11.1472 17.3205
      vertex -2.5 12.9904 17.3205
    endloop
  endfacet
  facet normal -0.477162 0.357241 0.802929
    outer loop
      vertex -1.75 14.6208 17.0408
      vertex -2.5 12.9904 17.3205
      vertex -1.75 13.9921 17.3205
    endloop
  endfacet
  facet normal -0.477164 0.357242 0.802928
    outer loop
      vertex -2.5 12.9904 17.3205
      vertex -1.75 14.6208 17.0408
      vertex -3.34565 17.3845 14.8629
    endloop
  endfacet
  facet normal 0.351432 0.551122 0.756809
    outer loop
      vertex 1.75 20.4034 14.0551
      vertex 1.75 19.294 14.8629
      vertex 2.06773 19.0914 14.8629
    endloop
  endfacet
  facet normal 0.351434 0.551121 0.756809
    outer loop
      vertex 1.75 20.4034 14.0551
      vertex 2.5 23.0826 11.7557
      vertex 1.75 23.5609 11.7557
    endloop
  endfacet
  facet normal 0.351434 0.551122 0.756809
    outer loop
      vertex 2.5 23.0826 11.7557
      vertex 1.75 20.4034 14.0551
      vertex 2.06773 19.0914 14.8629
    endloop
  endfacet
  facet normal -0.351434 0.551121 0.756809
    outer loop
      vertex -2.5 23.0826 11.7557
      vertex -1.75 20.4034 14.0551
      vertex -1.75 23.5609 11.7557
    endloop
  endfacet
  facet normal -0.351434 0.551122 0.756809
    outer loop
      vertex -1.75 20.4034 14.0551
      vertex -2.5 23.0826 11.7557
      vertex -2.06773 19.0914 14.8629
    endloop
  endfacet
  facet normal -0.431693 0.676984 0.596099
    outer loop
      vertex -1.75 25.0191 10.0996
      vertex -2.5 23.0826 11.7557
      vertex -1.75 23.5609 11.7557
    endloop
  endfacet
  facet normal -0.431692 0.676984 0.5961
    outer loop
      vertex -2.5 23.0826 11.7557
      vertex -1.75 25.0191 10.0996
      vertex -2.82301 26.065 8.13473
    endloop
  endfacet
  facet normal 0.24217 0.111106 0.963851
    outer loop
      vertex 1.75 7.58186 19.0211
      vertex 1.75 6.03108 19.1999
      vertex 2.06773 6.88933 19.0211
    endloop
  endfacet
  facet normal -0.242179 -0.111102 0.963849
    outer loop
      vertex -1.75 -5.83072 19.223
      vertex -2.06773 -6.88933 19.0211
      vertex -1.75 -6.03108 19.1999
    endloop
  endfacet
  facet normal -0.646736 -0.0700459 0.75949
    outer loop
      vertex -3.02264 -1.92745 19.0211
      vertex -4.56773 -6.10105 17.3205
      vertex -2.82301 -3.77066 19.0211
    endloop
  endfacet
  facet normal -0.608555 -0.117116 0.784821
    outer loop
      vertex -2.82301 -3.77066 19.0211
      vertex -4.56773 -6.10105 17.3205
      vertex -2.5 -5.44907 19.0211
    endloop
  endfacet
  facet normal -0.351434 -0.551122 0.756809
    outer loop
      vertex -1.75 -21.7836 13.05
      vertex -2.5 -23.0826 11.7557
      vertex -1.75 -23.5609 11.7557
    endloop
  endfacet
  facet normal -0.351433 -0.551122 0.756809
    outer loop
      vertex -2.06773 -19.0914 14.8629
      vertex -1.75 -21.7836 13.05
      vertex -1.75 -19.294 14.8629
    endloop
  endfacet
  facet normal -0.351433 -0.551122 0.756809
    outer loop
      vertex -1.75 -21.7836 13.05
      vertex -2.06773 -19.0914 14.8629
      vertex -2.5 -23.0826 11.7557
    endloop
  endfacet
  facet normal -0.624228 -0.286392 0.726855
    outer loop
      vertex -3.34565 -11.1472 17.3205
      vertex -3.34565 -17.3845 14.8629
      vertex -2.5 -12.9904 17.3205
    endloop
  endfacet
  facet normal -0.624228 -0.286392 0.726855
    outer loop
      vertex -3.34565 -11.1472 17.3205
      vertex -4.47736 -14.9178 14.8629
      vertex -3.34565 -17.3845 14.8629
    endloop
  endfacet
  facet normal -0.600595 0.449652 0.661135
    outer loop
      vertex -2.06773 19.0914 14.8629
      vertex -4.04508 21.0189 11.7557
      vertex -3.34565 17.3845 14.8629
    endloop
  endfacet
  facet normal -0.477163 0.357242 0.802928
    outer loop
      vertex -3.34565 17.3845 14.8629
      vertex -1.75 16.1578 16.3569
      vertex -2.06773 19.0914 14.8629
    endloop
  endfacet
  facet normal -0.477164 0.357242 0.802928
    outer loop
      vertex -1.75 16.1578 16.3569
      vertex -3.34565 17.3845 14.8629
      vertex -1.75 14.6208 17.0408
    endloop
  endfacet
  facet normal 0.477163 0.357242 0.802928
    outer loop
      vertex 3.34565 17.3845 14.8629
      vertex 2.06773 19.0914 14.8629
      vertex 2.5 12.9904 17.3205
    endloop
  endfacet
  facet normal 0.600595 0.449652 0.661135
    outer loop
      vertex 4.04508 21.0189 11.7557
      vertex 2.06773 19.0914 14.8629
      vertex 3.34565 17.3845 14.8629
    endloop
  endfacet
  facet normal -0.376289 -0.0407549 0.925605
    outer loop
      vertex -1.75 -1.91215 19.5392
      vertex -2.82301 -3.77066 19.0211
      vertex -1.75 -2.33745 19.5204
    endloop
  endfacet
  facet normal -0.346393 -0.0666608 0.935718
    outer loop
      vertex -1.75 -2.33745 19.5204
      vertex -2.82301 -3.77066 19.0211
      vertex -1.75 -2.72473 19.4929
    endloop
  endfacet
  facet normal 0 0 -1
    outer loop
      vertex -10 0 0
      vertex 10 0 0
      vertex 9.78148 -6.23735 0
    endloop
  endfacet
  facet normal 0 0 -1
    outer loop
      vertex -9.78148 -6.23735 0
      vertex 9.78148 -6.23735 0
      vertex 9.13545 -12.2021 0
    endloop
  endfacet
  facet normal 0 0 -1
    outer loop
      vertex 10 0 0
      vertex -10 0 0
      vertex 9.78148 6.23735 0
    endloop
  endfacet
  facet normal 0 0 -1
    outer loop
      vertex -9.13545 -12.2021 0
      vertex 9.13545 -12.2021 0
      vertex 8.09017 -17.6336 0
    endloop
  endfacet
  facet normal 0 -0 -1
    outer loop
      vertex -9.78148 6.23735 0
      vertex 9.78148 6.23735 0
      vertex -10 0 0
    endloop
  endfacet
  facet normal 0 0 -1
    outer loop
      vertex -8.09017 -17.6336 0
      vertex 8.09017 -17.6336 0
      vertex 6.69131 -22.2943 0
    endloop
  endfacet
  facet normal 0 0 -1
    outer loop
      vertex 9.78148 6.23735 0
      vertex -9.78148 6.23735 0
      vertex 9.13545 12.2021 0
    endloop
  endfacet
  facet normal 0 0 -1
    outer loop
      vertex -6.69131 -22.2943 0
      vertex 6.69131 -22.2943 0
      vertex 5 -25.9808 0
    endloop
  endfacet
  facet normal 0 -0 -1
    outer loop
      vertex -9.13545 12.2021 0
      vertex 9.13545 12.2021 0
      vertex -9.78148 6.23735 0
    endloop
  endfacet
  facet normal 0 0 -1
    outer loop
      vertex -5 -25.9808 0
      vertex 5 -25.9808 0
      vertex 3.09017 -28.5317 0
    endloop
  endfacet
  facet normal 0 0 -1
    outer loop
      vertex 9.13545 12.2021 0
      vertex -9.13545 12.2021 0
      vertex 8.09017 17.6336 0
    endloop
  endfacet
  facet normal 0 0 -1
    outer loop
      vertex -3.09017 -28.5317 0
      vertex 3.09017 -28.5317 0
      vertex 1.04528 -29.8357 0
    endloop
  endfacet
  facet normal 0 -0 -1
    outer loop
      vertex -8.09017 17.6336 0
      vertex 8.09017 17.6336 0
      vertex -9.13545 12.2021 0
    endloop
  endfacet
  facet normal 0 0 -1
    outer loop
      vertex -3.09017 -28.5317 0
      vertex 1.04528 -29.8357 0
      vertex -1.04528 -29.8357 0
    endloop
  endfacet
  facet normal 0 0 -1
    outer loop
      vertex 8.09017 17.6336 0
      vertex -8.09017 17.6336 0
      vertex 6.69131 22.2943 0
    endloop
  endfacet
  facet normal 0 0 -1
    outer loop
      vertex 3.09017 -28.5317 0
      vertex -3.09017 -28.5317 0
      vertex -5 -25.9808 0
    endloop
  endfacet
  facet normal 0 -0 -1
    outer loop
      vertex -6.69131 22.2943 0
      vertex 6.69131 22.2943 0
      vertex -8.09017 17.6336 0
    endloop
  endfacet
  facet normal 0 0 -1
    outer loop
      vertex 6.69131 22.2943 0
      vertex -6.69131 22.2943 0
      vertex 5 25.9808 0
    endloop
  endfacet
  facet normal 0 0 -1
    outer loop
      vertex 5 -25.9808 0
      vertex -5 -25.9808 0
      vertex -6.69131 -22.2943 0
    endloop
  endfacet
  facet normal 0 0 -1
    outer loop
      vertex 6.69131 -22.2943 0
      vertex -6.69131 -22.2943 0
      vertex -8.09017 -17.6336 0
    endloop
  endfacet
  facet normal 0 0 -1
    outer loop
      vertex 9.78148 -6.23735 0
      vertex -9.78148 -6.23735 0
      vertex -10 0 0
    endloop
  endfacet
  facet normal 0 0 -1
    outer loop
      vertex 8.09017 -17.6336 0
      vertex -8.09017 -17.6336 0
      vertex -9.13545 -12.2021 0
    endloop
  endfacet
  facet normal 0 -0 -1
    outer loop
      vertex -5 25.9808 0
      vertex 5 25.9808 0
      vertex -6.69131 22.2943 0
    endloop
  endfacet
  facet normal 0 0 -1
    outer loop
      vertex 9.13545 -12.2021 0
      vertex -9.13545 -12.2021 0
      vertex -9.78148 -6.23735 0
    endloop
  endfacet
  facet normal 0 0 -1
    outer loop
      vertex 5 25.9808 0
      vertex -5 25.9808 0
      vertex 3.09017 28.5317 0
    endloop
  endfacet
  facet normal 0 0 -1
    outer loop
      vertex 3.09017 28.5317 0
      vertex -3.09017 28.5317 0
      vertex 1.04528 29.8357 0
    endloop
  endfacet
  facet normal -0 0 -1
    outer loop
      vertex 1.04528 29.8357 0
      vertex -3.09017 28.5317 0
      vertex -1.04528 29.8357 0
    endloop
  endfacet
  facet normal 0 -0 -1
    outer loop
      vertex -3.09017 28.5317 0
      vertex 3.09017 28.5317 0
      vertex -5 25.9808 0
    endloop
  endfacet
  facet normal 1 0 0
    outer loop
      vertex -1.75 27.9235 5.76502
      vertex -1.75 28.852 3.33333
      vertex -1.75 28.7197 4.15823
    endloop
  endfacet
  facet normal 1 0 0
    outer loop
      vertex -1.75 25.0191 10.0996
      vertex -1.75 27.9235 5.76502
      vertex -1.75 26.7492 8.13473
    endloop
  endfacet
  facet normal 1 0 0
    outer loop
      vertex -1.75 27.9235 5.76502
      vertex -1.75 25.0191 10.0996
      vertex -1.75 28.852 3.33333
    endloop
  endfacet
  facet normal 1 0 0
    outer loop
      vertex -1.75 20.4034 14.0551
      vertex -1.75 25.0191 10.0996
      vertex -1.75 23.5609 11.7557
    endloop
  endfacet
  facet normal 1 0 0
    outer loop
      vertex -1.75 25.0191 10.0996
      vertex -1.75 20.4034 14.0551
      vertex -1.75 28.852 3.33333
    endloop
  endfacet
  facet normal 1 0 0
    outer loop
      vertex -1.75 16.1578 16.3569
      vertex -1.75 20.4034 14.0551
      vertex -1.75 19.294 14.8629
    endloop
  endfacet
  facet normal 1 0 0
    outer loop
      vertex -1.75 20.4034 14.0551
      vertex -1.75 16.1578 16.3569
      vertex -1.75 28.852 3.33333
    endloop
  endfacet
  facet normal 1 0 0
    outer loop
      vertex -1.75 14.6208 17.0408
      vertex -1.75 28.852 3.33333
      vertex -1.75 16.1578 16.3569
    endloop
  endfacet
  facet normal 1 0 0
    outer loop
      vertex -1.75 9.09327 18.6562
      vertex -1.75 14.6208 17.0408
      vertex -1.75 13.9921 17.3205
    endloop
  endfacet
  facet normal 1 0 0
    outer loop
      vertex -1.75 14.6208 17.0408
      vertex -1.75 9.09327 18.6562
      vertex -1.75 28.852 3.33333
    endloop
  endfacet
  facet normal 1 0 0
    outer loop
      vertex -1.75 6.03108 19.1999
      vertex -1.75 9.09327 18.6562
      vertex -1.75 8.38342 18.8276
    endloop
  endfacet
  facet normal 1 0 0
    outer loop
      vertex -1.75 6.03108 19.1999
      vertex -1.75 8.38342 18.8276
      vertex -1.75 7.58186 19.0211
    endloop
  endfacet
  facet normal 1 0 0
    outer loop
      vertex -1.75 5.57739 19.2471
      vertex -1.75 9.09327 18.6562
      vertex -1.75 6.03108 19.1999
    endloop
  endfacet
  facet normal 1 0 0
    outer loop
      vertex -1.75 5.57739 19.2471
      vertex -1.75 6.03108 19.1999
      vertex -1.75 5.83072 19.223
    endloop
  endfacet
  facet normal 1 0 0
    outer loop
      vertex -1.75 9.09327 18.6562
      vertex -1.75 5.57739 19.2471
      vertex -1.75 28.852 3.33333
    endloop
  endfacet
  facet normal 1 0 0
    outer loop
      vertex -1.75 3.81435 19.4152
      vertex -1.75 28.852 3.33333
      vertex -1.75 5.57739 19.2471
    endloop
  endfacet
  facet normal 1 0 0
    outer loop
      vertex -1.75 2.72473 19.4929
      vertex -1.75 28.852 3.33333
      vertex -1.75 3.81435 19.4152
    endloop
  endfacet
  facet normal 1 0 0
    outer loop
      vertex -1.75 1.91215 19.5392
      vertex -1.75 2.72473 19.4929
      vertex -1.75 2.33745 19.5204
    endloop
  endfacet
  facet normal 1 0 0
    outer loop
      vertex -1.75 2.72473 19.4929
      vertex -1.75 1.91215 19.5392
      vertex -1.75 28.852 3.33333
    endloop
  endfacet
  facet normal 1 0 0
    outer loop
      vertex -1.75 0.686928 19.5806
      vertex -1.75 1.91215 19.5392
      vertex -1.75 1.11592 19.5742
    endloop
  endfacet
  facet normal 1 0 0
    outer loop
      vertex -1.75 1.91215 19.5392
      vertex -1.75 0.686928 19.5806
      vertex -1.75 28.852 3.33333
    endloop
  endfacet
  facet normal 1 0 0
    outer loop
      vertex -1.75 0 19.5909
      vertex -1.75 28.852 3.33333
      vertex -1.75 0.686928 19.5806
    endloop
  endfacet
  facet normal 1 -0 0
    outer loop
      vertex -1.75 -0.686928 19.5806
      vertex -1.75 28.852 3.33333
      vertex -1.75 0 19.5909
    endloop
  endfacet
  facet normal 1 0 0
    outer loop
      vertex -1.75 -1.91215 19.5392
      vertex -1.75 -0.686928 19.5806
      vertex -1.75 -1.11592 19.5742
    endloop
  endfacet
  facet normal 1 0 0
    outer loop
      vertex -1.75 -0.686928 19.5806
      vertex -1.75 -1.91215 19.5392
      vertex -1.75 28.852 3.33333
    endloop
  endfacet
  facet normal 1 0 0
    outer loop
      vertex -1.75 -2.72473 19.4929
      vertex -1.75 -1.91215 19.5392
      vertex -1.75 -2.33745 19.5204
    endloop
  endfacet
  facet normal 1 0 0
    outer loop
      vertex -1.75 -28.852 3.33333
      vertex -1.75 -1.91215 19.5392
      vertex -1.75 -2.72473 19.4929
    endloop
  endfacet
  facet normal 1 0 0
    outer loop
      vertex -1.75 -28.852 3.33333
      vertex -1.75 -2.72473 19.4929
      vertex -1.75 -3.81435 19.4152
    endloop
  endfacet
  facet normal 1 0 0
    outer loop
      vertex -1.75 -28.852 3.33333
      vertex -1.75 -3.81435 19.4152
      vertex -1.75 -5.57739 19.2471
    endloop
  endfacet
  facet normal 1 0 0
    outer loop
      vertex -1.75 -6.03108 19.1999
      vertex -1.75 -5.57739 19.2471
      vertex -1.75 -5.83072 19.223
    endloop
  endfacet
  facet normal 1 0 0
    outer loop
      vertex -1.75 -9.09327 18.6562
      vertex -1.75 -5.57739 19.2471
      vertex -1.75 -6.03108 19.1999
    endloop
  endfacet
  facet normal 1 0 0
    outer loop
      vertex -1.75 -8.38342 18.8276
      vertex -1.75 -6.03108 19.1999
      vertex -1.75 -7.58186 19.0211
    endloop
  endfacet
  facet normal 1 0 0
    outer loop
      vertex -1.75 -9.09327 18.6562
      vertex -1.75 -6.03108 19.1999
      vertex -1.75 -8.38342 18.8276
    endloop
  endfacet
  facet normal 1 0 0
    outer loop
      vertex -1.75 -5.57739 19.2471
      vertex -1.75 -9.09327 18.6562
      vertex -1.75 -28.852 3.33333
    endloop
  endfacet
  facet normal 1 0 0
    outer loop
      vertex -1.75 -16.1578 16.3569
      vertex -1.75 -9.09327 18.6562
      vertex -1.75 -13.9921 17.3205
    endloop
  endfacet
  facet normal 1 0 0
    outer loop
      vertex -1.75 -9.09327 18.6562
      vertex -1.75 -16.1578 16.3569
      vertex -1.75 -28.852 3.33333
    endloop
  endfacet
  facet normal 1 0 0
    outer loop
      vertex -1.75 -21.7836 13.05
      vertex -1.75 -16.1578 16.3569
      vertex -1.75 -19.294 14.8629
    endloop
  endfacet
  facet normal 1 0 0
    outer loop
      vertex -1.75 -16.1578 16.3569
      vertex -1.75 -21.7836 13.05
      vertex -1.75 -28.852 3.33333
    endloop
  endfacet
  facet normal 1 0 0
    outer loop
      vertex -1.75 -25.0191 10.0996
      vertex -1.75 -21.7836 13.05
      vertex -1.75 -23.5609 11.7557
    endloop
  endfacet
  facet normal 1 0 0
    outer loop
      vertex -1.75 -21.7836 13.05
      vertex -1.75 -25.0191 10.0996
      vertex -1.75 -28.852 3.33333
    endloop
  endfacet
  facet normal 1 0 0
    outer loop
      vertex -1.75 -27.9235 5.76502
      vertex -1.75 -25.0191 10.0996
      vertex -1.75 -26.7492 8.13473
    endloop
  endfacet
  facet normal 1 0 0
    outer loop
      vertex -1.75 -28.852 3.33333
      vertex -1.75 -25.0191 10.0996
      vertex -1.75 -27.9235 5.76502
    endloop
  endfacet
  facet normal 1 0 0
    outer loop
      vertex -1.75 -28.852 3.33333
      vertex -1.75 -27.9235 5.76502
      vertex -1.75 -28.7197 4.15823
    endloop
  endfacet
  facet normal 1 0 0
    outer loop
      vertex -1.75 -1.91215 19.5392
      vertex -1.75 -28.852 3.33333
      vertex -1.75 28.852 3.33333
    endloop
  endfacet
  facet normal -1 0 0
    outer loop
      vertex 1.75 28.852 3.33333
      vertex 1.75 27.9235 5.76502
      vertex 1.75 28.7197 4.15823
    endloop
  endfacet
  facet normal -1 0 0
    outer loop
      vertex 1.75 25.0191 10.0996
      vertex 1.75 27.9235 5.76502
      vertex 1.75 28.852 3.33333
    endloop
  endfacet
  facet normal -1 0 0
    outer loop
      vertex 1.75 27.9235 5.76502
      vertex 1.75 25.0191 10.0996
      vertex 1.75 26.7492 8.13473
    endloop
  endfacet
  facet normal -1 0 0
    outer loop
      vertex 1.75 20.4034 14.0551
      vertex 1.75 25.0191 10.0996
      vertex 1.75 28.852 3.33333
    endloop
  endfacet
  facet normal -1 0 0
    outer loop
      vertex 1.75 25.0191 10.0996
      vertex 1.75 20.4034 14.0551
      vertex 1.75 23.5609 11.7557
    endloop
  endfacet
  facet normal -1 0 0
    outer loop
      vertex 1.75 16.1578 16.3569
      vertex 1.75 20.4034 14.0551
      vertex 1.75 28.852 3.33333
    endloop
  endfacet
  facet normal -1 0 0
    outer loop
      vertex 1.75 20.4034 14.0551
      vertex 1.75 16.1578 16.3569
      vertex 1.75 19.294 14.8629
    endloop
  endfacet
  facet normal -1 0 0
    outer loop
      vertex 1.75 9.09327 18.6562
      vertex 1.75 16.1578 16.3569
      vertex 1.75 28.852 3.33333
    endloop
  endfacet
  facet normal -1 0 0
    outer loop
      vertex 1.75 16.1578 16.3569
      vertex 1.75 9.09327 18.6562
      vertex 1.75 13.9921 17.3205
    endloop
  endfacet
  facet normal -1 0 0
    outer loop
      vertex 1.75 5.57739 19.2471
      vertex 1.75 9.09327 18.6562
      vertex 1.75 28.852 3.33333
    endloop
  endfacet
  facet normal -1 0 0
    outer loop
      vertex 1.75 9.09327 18.6562
      vertex 1.75 6.03108 19.1999
      vertex 1.75 8.38342 18.8276
    endloop
  endfacet
  facet normal -1 0 0
    outer loop
      vertex 1.75 8.38342 18.8276
      vertex 1.75 6.03108 19.1999
      vertex 1.75 7.58186 19.0211
    endloop
  endfacet
  facet normal -1 0 0
    outer loop
      vertex 1.75 9.09327 18.6562
      vertex 1.75 5.57739 19.2471
      vertex 1.75 6.03108 19.1999
    endloop
  endfacet
  facet normal -1 0 0
    outer loop
      vertex 1.75 6.03108 19.1999
      vertex 1.75 5.57739 19.2471
      vertex 1.75 5.83072 19.223
    endloop
  endfacet
  facet normal -1 0 0
    outer loop
      vertex 1.75 28.852 3.33333
      vertex 1.75 3.81435 19.4152
      vertex 1.75 5.57739 19.2471
    endloop
  endfacet
  facet normal -1 0 0
    outer loop
      vertex 1.75 28.852 3.33333
      vertex 1.75 2.72473 19.4929
      vertex 1.75 3.81435 19.4152
    endloop
  endfacet
  facet normal -1 0 0
    outer loop
      vertex 1.75 1.91215 19.5392
      vertex 1.75 2.72473 19.4929
      vertex 1.75 28.852 3.33333
    endloop
  endfacet
  facet normal -1 0 0
    outer loop
      vertex 1.75 2.72473 19.4929
      vertex 1.75 1.91215 19.5392
      vertex 1.75 2.33745 19.5204
    endloop
  endfacet
  facet normal -1 0 0
    outer loop
      vertex 1.75 0.686928 19.5806
      vertex 1.75 1.91215 19.5392
      vertex 1.75 28.852 3.33333
    endloop
  endfacet
  facet normal -1 0 0
    outer loop
      vertex 1.75 1.91215 19.5392
      vertex 1.75 0.686928 19.5806
      vertex 1.75 1.11592 19.5742
    endloop
  endfacet
  facet normal -1 0 0
    outer loop
      vertex 1.75 28.852 3.33333
      vertex 1.75 0 19.5909
      vertex 1.75 0.686928 19.5806
    endloop
  endfacet
  facet normal -1 0 0
    outer loop
      vertex 1.75 28.852 3.33333
      vertex 1.75 -0.686928 19.5806
      vertex 1.75 0 19.5909
    endloop
  endfacet
  facet normal -1 0 0
    outer loop
      vertex 1.75 -1.91215 19.5392
      vertex 1.75 -0.686928 19.5806
      vertex 1.75 28.852 3.33333
    endloop
  endfacet
  facet normal -1 0 0
    outer loop
      vertex 1.75 -0.686928 19.5806
      vertex 1.75 -1.91215 19.5392
      vertex 1.75 -1.11592 19.5742
    endloop
  endfacet
  facet normal -1 0 0
    outer loop
      vertex 1.75 -28.852 3.33333
      vertex 1.75 -1.91215 19.5392
      vertex 1.75 28.852 3.33333
    endloop
  endfacet
  facet normal -1 0 0
    outer loop
      vertex 1.75 -1.91215 19.5392
      vertex 1.75 -2.72473 19.4929
      vertex 1.75 -2.33745 19.5204
    endloop
  endfacet
  facet normal -1 0 0
    outer loop
      vertex 1.75 -1.91215 19.5392
      vertex 1.75 -28.852 3.33333
      vertex 1.75 -2.72473 19.4929
    endloop
  endfacet
  facet normal -1 0 0
    outer loop
      vertex 1.75 -2.72473 19.4929
      vertex 1.75 -28.852 3.33333
      vertex 1.75 -3.81435 19.4152
    endloop
  endfacet
  facet normal -1 0 0
    outer loop
      vertex 1.75 -3.81435 19.4152
      vertex 1.75 -28.852 3.33333
      vertex 1.75 -5.57739 19.2471
    endloop
  endfacet
  facet normal -1 0 -0
    outer loop
      vertex 1.75 -9.09327 18.6562
      vertex 1.75 -5.57739 19.2471
      vertex 1.75 -28.852 3.33333
    endloop
  endfacet
  facet normal -1 0 0
    outer loop
      vertex 1.75 -5.57739 19.2471
      vertex 1.75 -6.03108 19.1999
      vertex 1.75 -5.83072 19.223
    endloop
  endfacet
  facet normal -1 0 0
    outer loop
      vertex 1.75 -6.03108 19.1999
      vertex 1.75 -8.38342 18.8276
      vertex 1.75 -7.58186 19.0211
    endloop
  endfacet
  facet normal -1 0 0
    outer loop
      vertex 1.75 -5.57739 19.2471
      vertex 1.75 -9.09327 18.6562
      vertex 1.75 -6.03108 19.1999
    endloop
  endfacet
  facet normal -1 0 0
    outer loop
      vertex 1.75 -6.03108 19.1999
      vertex 1.75 -9.09327 18.6562
      vertex 1.75 -8.38342 18.8276
    endloop
  endfacet
  facet normal -1 0 -0
    outer loop
      vertex 1.75 -14.6208 17.0408
      vertex 1.75 -9.09327 18.6562
      vertex 1.75 -28.852 3.33333
    endloop
  endfacet
  facet normal -1 0 0
    outer loop
      vertex 1.75 -9.09327 18.6562
      vertex 1.75 -14.6208 17.0408
      vertex 1.75 -13.9921 17.3205
    endloop
  endfacet
  facet normal -1 0 0
    outer loop
      vertex 1.75 -14.6208 17.0408
      vertex 1.75 -28.852 3.33333
      vertex 1.75 -16.1578 16.3569
    endloop
  endfacet
  facet normal -1 0 -0
    outer loop
      vertex 1.75 -20.4034 14.0551
      vertex 1.75 -16.1578 16.3569
      vertex 1.75 -28.852 3.33333
    endloop
  endfacet
  facet normal -1 0 0
    outer loop
      vertex 1.75 -16.1578 16.3569
      vertex 1.75 -20.4034 14.0551
      vertex 1.75 -19.294 14.8629
    endloop
  endfacet
  facet normal -1 0 -0
    outer loop
      vertex 1.75 -25.0191 10.0996
      vertex 1.75 -20.4034 14.0551
      vertex 1.75 -28.852 3.33333
    endloop
  endfacet
  facet normal -1 0 0
    outer loop
      vertex 1.75 -20.4034 14.0551
      vertex 1.75 -25.0191 10.0996
      vertex 1.75 -23.5609 11.7557
    endloop
  endfacet
  facet normal -1 0 0
    outer loop
      vertex 1.75 -25.0191 10.0996
      vertex 1.75 -27.9235 5.76502
      vertex 1.75 -26.7492 8.13473
    endloop
  endfacet
  facet normal -1 0 0
    outer loop
      vertex 1.75 -25.0191 10.0996
      vertex 1.75 -28.852 3.33333
      vertex 1.75 -27.9235 5.76502
    endloop
  endfacet
  facet normal -1 0 0
    outer loop
      vertex 1.75 -27.9235 5.76502
      vertex 1.75 -28.852 3.33333
      vertex 1.75 -28.7197 4.15823
    endloop
  endfacet
  facet normal 0 0 1
    outer loop
      vertex -1.75 28.852 3.33333
      vertex 1.75 28.852 3.33333
      vertex 1.43263 29.0543 3.33333
    endloop
  endfacet
  facet normal 0 0 1
    outer loop
      vertex 1.75 28.852 3.33333
      vertex -1.75 28.852 3.33333
      vertex 1.75 -28.852 3.33333
    endloop
  endfacet
  facet normal 0 0 1
    outer loop
      vertex -1.43263 29.0543 3.33333
      vertex 1.43263 29.0543 3.33333
      vertex 1.02697 29.313 3.33333
    endloop
  endfacet
  facet normal 0 0 1
    outer loop
      vertex -1.75 -28.852 3.33333
      vertex 1.75 -28.852 3.33333
      vertex -1.75 28.852 3.33333
    endloop
  endfacet
  facet normal 0 0 1
    outer loop
      vertex -1.43263 29.0543 3.33333
      vertex 1.02697 29.313 3.33333
      vertex -1.02697 29.313 3.33333
    endloop
  endfacet
  facet normal 0 0 1
    outer loop
      vertex 1.43263 29.0543 3.33333
      vertex -1.43263 29.0543 3.33333
      vertex -1.75 28.852 3.33333
    endloop
  endfacet
  facet normal 0 0 1
    outer loop
      vertex 1.75 -28.852 3.33333
      vertex -1.75 -28.852 3.33333
      vertex 1.43263 -29.0543 3.33333
    endloop
  endfacet
  facet normal 0 0 1
    outer loop
      vertex 1.02697 -29.313 3.33333
      vertex -1.43263 -29.0543 3.33333
      vertex -1.02697 -29.313 3.33333
    endloop
  endfacet
  facet normal 0 -0 1
    outer loop
      vertex -1.43263 -29.0543 3.33333
      vertex 1.43263 -29.0543 3.33333
      vertex -1.75 -28.852 3.33333
    endloop
  endfacet
  facet normal 0 0 1
    outer loop
      vertex 1.43263 -29.0543 3.33333
      vertex -1.43263 -29.0543 3.33333
      vertex 1.02697 -29.313 3.33333
    endloop
  endfacet
endsolid OpenSCAD_Model
